<?xml version="1.0" encoding="UTF-8"?>
<svg id="logo-navbar" data-name="Layer 1" xmlns="http://www.w3.org/2000/svg" viewBox="0 0 123.1 51.19">
  <defs>
    <style>
      .dark {
        fill: #231f20;
      }
      .light {
        fill: #ffffff;
      }
    </style>
  </defs>
  <path d="m23.52,44.52L0,29.34v-7.04L23.52,7.12v9.35l-15.12,9.23v.24l15.12,9.23v9.35Z"/>
  <g>
    <path d="m25.23,45.33V6.33c3.24-1.91,6.63-3.45,10.12-4.61,1.06,4.89,2.12,10.05,3.19,15.4.36,2.12.73,4.28,1.09,6.45.08,0,.16,0,.24,0,.37-2.19.73-4.41,1.1-6.64,1.08-5.65,2.17-11.44,3.26-17.3,3.6-.52,7.25-.67,10.87-.43v53.27c-2.94.19-5.9.13-8.83-.17v-12.46c0-1.57.05-3.55.15-5.94.1-2.39.22-4.9.34-7.54.12-2.64.27-5.16.43-7.56.16-2.4.31-4.37.43-5.9-.06,0-.12,0-.19,0-1.14,5.31-2.27,10.57-3.41,15.74-.7,3.16-1.4,6.28-2.09,9.34-1.56-.14-3.1-.31-4.63-.52-.72-3.09-1.44-6.11-2.16-9.05-1-4.8-1.98-9.4-2.96-13.75-.08.02-.16.03-.23.05.12,1.29.25,2.96.41,5.02.16,2.06.29,4.25.41,6.56.12,2.31.23,4.52.32,6.64.1,2.12.15,3.88.15,5.27,0,3.67,0,7.33,0,11-2.76-1.05-5.45-2.34-8.04-3.87Z"/>
    <path d="m47.83,52.43V-.77c3.87-.29,7.77-.15,11.61.43,3.83.57,7.15,2.39,9.98,4.89,2.83,2.51,4.98,5.72,6.51,9.2,1.53,3.51,2.27,7.32,2.27,11.9,0,4.58-.74,8.41-2.24,11.96-1.51,3.53-3.61,6.77-6.36,9.33-2.75,2.55-5.93,4.38-9.55,4.96-4.05.66-8.15.83-12.23.53Zm10.69-11.47c.12,0,.25-.02.37-.03,1.73-.14,3.29-.75,4.67-1.75,1.38-1,2.47-2.61,3.27-4.76.8-2.15,1.2-5.06,1.2-8.82,0-3.76-.4-6.63-1.2-8.71-.8-2.07-1.89-3.61-3.27-4.54-1.38-.93-2.94-1.49-4.67-1.63-.12,0-.25-.02-.37-.03v30.27Z"/>
  </g>
  <path d="m64.94,0c3.13,1.58,5.32,3.36,6.7,4.66.49.46,1.23,1.16,2.09,2.21,2.09,2.54,3.1,4.94,3.73,6.47.42,1.02.93,2.28,1.31,4.04.36,1.65.46,3.09.47,4.17,6.2,1.57,12.39,3.13,18.59,4.7v.41c-6.01,1.73-12.01,3.46-18.02,5.2-.25,1.27-.63,2.76-1.26,4.38-.55,1.42-1.16,2.64-1.74,3.66-.66,1.26-1.49,2.64-2.55,4.04-2.69,3.56-5.74,5.84-8.04,7.26,18.96-6.28,37.92-12.56,56.88-18.84v-11.79C103.71,13.7,84.33,6.85,64.94,0Z"/>
</svg>