<?xml version="1.0" encoding="UTF-8"?>
<svg id="logo-circular" data-name="Layer 1" xmlns="http://www.w3.org/2000/svg" viewBox="0 0 173.97 173.29" class="">
  <defs>
    <style>
      .dark {
        fill: #231f20;
      }
      .light {
        fill: #ffffff;
      }
    </style>
  </defs>
  <g>
    <path  d="m22.86,61.65c-5.12-2.67-10.24-5.33-15.37-8,.72-1.38,1.44-2.76,2.15-4.14l5.66,1.35c.74.2,1.47.41,2.21.61.02-.03.03-.06.05-.09-.59-.49-1.18-.97-1.76-1.46-1.45-1.29-2.91-2.57-4.36-3.86.72-1.38,1.44-2.76,2.15-4.14,5.12,2.67,10.24,5.33,15.37,8-.58,1.12-1.16,2.24-1.75,3.36-1.21-.63-2.41-1.25-3.62-1.88-.46-.24-1.02-.56-1.69-.96-.67-.4-1.38-.82-2.12-1.27-.74-.44-1.44-.88-2.1-1.3-.66-.42-1.2-.77-1.62-1.05-.01.02-.02.05-.04.07,1.3,1.22,2.59,2.45,3.89,3.67.79.75,1.58,1.5,2.37,2.26-.31.6-.62,1.2-.94,1.8-1.08-.2-2.15-.4-3.23-.6-1.73-.4-3.45-.79-5.18-1.19-.02.03-.03.06-.05.09.47.18,1.06.42,1.79.72.73.3,1.48.62,2.27.97.79.35,1.54.69,2.25,1.01.71.32,1.3.6,1.76.84,1.21.63,2.41,1.25,3.62,1.88-.57,1.1-1.15,2.21-1.72,3.31Z"/>
    <path  d="m33.05,45.24c-.59.71-1.24,1.18-1.95,1.43-.7.24-1.4.3-2.1.15-.69-.14-1.32-.45-1.88-.92-1.14-.96-1.6-2.19-1.38-3.68.22-1.49,1.25-3.46,3.08-5.89-.28-.17-.57-.23-.86-.2-.29.03-.6.16-.9.37-.31.22-.62.51-.94.9-.24.29-.46.6-.65.95-.19.35-.36.75-.51,1.19-.15.44-.3.95-.45,1.51-1.1-.23-2.21-.46-3.31-.69.15-.76.34-1.49.58-2.19.24-.7.54-1.37.89-2,.36-.63.77-1.23,1.25-1.8.81-.97,1.68-1.67,2.62-2.1.93-.43,1.92-.55,2.95-.36,1.03.19,2.11.76,3.22,1.7,1.89,1.59,3.78,3.18,5.67,4.76-.8.95-1.6,1.9-2.4,2.86-.42-.22-.84-.43-1.27-.65-.02.03-.05.05-.07.08-.06.81-.2,1.62-.44,2.41-.24.8-.63,1.51-1.16,2.15Zm-1.73-3.4c.34-.41.57-.84.69-1.3.12-.46.19-.91.21-1.35-.44-.37-.87-.73-1.31-1.1-.67.85-1.13,1.55-1.39,2.11-.25.55-.35,1-.3,1.33.05.34.2.6.43.79.15.13.32.2.5.21.18.02.37-.04.56-.15.19-.12.39-.3.6-.54Z"/>
    <path  d="m40.11,36.76c-2.7-3.52-5.4-7.05-8.11-10.57.99-.76,1.97-1.51,2.96-2.27.41.36.82.72,1.23,1.07.03-.02.06-.04.08-.06.11-.73.34-1.47.68-2.22.35-.75.91-1.42,1.68-2.01,1.17-.9,2.32-1.16,3.46-.79,1.14.37,2.21,1.21,3.21,2.52,1.66,2.17,3.33,4.34,4.99,6.51-1.21.93-2.43,1.86-3.64,2.79-1.55-2.02-3.09-4.03-4.64-6.05-.45-.59-.87-.95-1.25-1.09-.38-.13-.8-.02-1.27.34-.34.26-.58.56-.73.89-.15.34-.26.74-.35,1.21,1.77,2.31,3.55,4.62,5.32,6.94l-3.64,2.79Z"/>
    <path  d="m59.06,24.99c-1.27.59-2.54.88-3.79.85-1.26-.02-2.4-.37-3.43-1.03-1.03-.66-1.86-1.67-2.48-3-.62-1.34-.82-2.63-.6-3.88.22-1.25.76-2.38,1.6-3.38.85-1,1.89-1.79,3.13-2.37.95-.44,1.89-.7,2.82-.78.93-.08,1.76,0,2.48.26-.23,1.15-.46,2.29-.69,3.44-.59-.1-1.12-.11-1.57-.05-.45.06-.87.18-1.26.36-.6.28-1.07.65-1.43,1.1-.35.46-.56.97-.6,1.54-.05.57.07,1.16.35,1.77.29.61.66,1.09,1.12,1.42.46.33.97.52,1.52.56.56.04,1.11-.08,1.68-.34.6-.28,1.09-.63,1.48-1.07.39-.44.73-.88,1.02-1.32.95.62,1.9,1.23,2.86,1.85-.46.96-1.07,1.78-1.85,2.48-.77.69-1.56,1.23-2.37,1.6Z"/>
    <path  d="m71.18,20.59c-.69-3.18-1.39-6.35-2.08-9.53-1.65.36-3.3.72-4.95,1.08-.25-1.16-.51-2.33-.76-3.49,3.14-.69,6.28-1.37,9.43-2.06.95,4.34,1.89,8.68,2.84,13.02l-4.48.98Zm-1.14-15.24c-.83.18-1.57.09-2.21-.27-.64-.36-1.05-.93-1.22-1.71-.17-.78-.04-1.48.39-2.09.43-.61,1.06-1.01,1.9-1.19.83-.18,1.57-.08,2.22.29.65.38,1.05.96,1.22,1.74.17.78.04,1.47-.39,2.06-.44.6-1.07.98-1.9,1.16Z"/>
    <path  d="m84.76,19.09c-1.49-.02-2.56-.53-3.2-1.53-.64-1-.95-2.32-.92-3.97.04-2.74.09-5.47.13-8.21,1.53.02,3.06.05,4.58.07l-.12,7.62c-.01.75.08,1.29.28,1.63.2.34.6.52,1.2.53.39,0,.74-.06,1.04-.21.3-.15.63-.46.97-.93.05-2.86.09-5.72.14-8.58,1.53.02,3.06.05,4.58.07-.07,4.44-.14,8.88-.22,13.32-1.24-.02-2.49-.04-3.73-.06-.1-.59-.19-1.18-.29-1.76-.04,0-.07,0-.11,0-.56.63-1.19,1.13-1.89,1.49-.7.36-1.52.54-2.46.52Z"/>
    <path  d="m110.42,22.67c2.47-5.22,4.94-10.44,7.41-15.66,1.5.71,3,1.42,4.5,2.13,1.49.71,2.69,1.59,3.59,2.66.9,1.06,1.41,2.32,1.52,3.77.11,1.45-.27,3.1-1.14,4.94-.87,1.85-1.91,3.2-3.1,4.06-1.19.86-2.48,1.3-3.85,1.32-1.37.02-2.77-.31-4.18-.98-1.58-.75-3.16-1.5-4.75-2.24Zm5.72-1.36s.1.05.14.07c.67.32,1.34.48,2.01.48.67,0,1.32-.25,1.95-.76.63-.51,1.24-1.37,1.82-2.59.58-1.22.85-2.22.83-3.01-.02-.79-.25-1.42-.69-1.92-.44-.49-.99-.9-1.67-1.22-.05-.02-.1-.05-.14-.07-1.42,3-2.84,6.01-4.26,9.01Z"/>
    <path  d="m126.92,32.1c-.73-.57-1.23-1.2-1.5-1.89-.27-.69-.35-1.39-.23-2.09.12-.7.4-1.33.84-1.91.92-1.18,2.12-1.68,3.63-1.52,1.5.17,3.5,1.12,6,2.86.15-.29.21-.57.17-.87-.04-.29-.18-.59-.41-.89-.23-.3-.54-.6-.93-.91-.29-.23-.62-.43-.98-.61-.36-.18-.76-.33-1.21-.47-.45-.13-.96-.27-1.53-.4.19-1.11.38-2.23.57-3.34.76.12,1.5.29,2.21.5.71.21,1.39.49,2.03.82.64.33,1.26.73,1.85,1.18,1,.77,1.73,1.62,2.2,2.54.47.92.63,1.89.47,2.93-.16,1.04-.68,2.13-1.57,3.28-1.52,1.95-3.03,3.9-4.55,5.85-.98-.76-1.96-1.53-2.95-2.29.2-.43.4-.86.6-1.29-.03-.02-.06-.04-.08-.07-.81-.02-1.62-.14-2.43-.35-.8-.21-1.54-.57-2.2-1.08Zm3.34-1.86c.42.33.86.54,1.32.64.46.1.91.15,1.36.16.35-.45.7-.9,1.05-1.35-.88-.64-1.6-1.07-2.16-1.31-.56-.23-1.01-.32-1.34-.25-.33.07-.59.22-.78.46-.12.15-.18.32-.19.51,0,.18.05.37.17.56.13.19.31.38.57.57Z"/>
    <path  d="m135.64,38.82c3.42-2.83,6.84-5.67,10.26-8.5.79.96,1.59,1.91,2.38,2.87-.34.42-.68.84-1.03,1.27.02.03.05.05.07.08.74.08,1.48.28,2.24.6.76.32,1.45.85,2.07,1.6.94,1.13,1.25,2.28.92,3.43-.33,1.15-1.13,2.25-2.4,3.31-2.11,1.75-4.21,3.49-6.32,5.24-.97-1.18-1.95-2.35-2.92-3.53,1.96-1.62,3.91-3.24,5.87-4.86.57-.48.92-.91,1.04-1.29.12-.39,0-.81-.38-1.26-.27-.33-.58-.56-.92-.69-.34-.13-.75-.23-1.22-.3-2.24,1.86-4.49,3.72-6.73,5.58-.97-1.18-1.95-2.35-2.92-3.53Z"/>
    <path  d="m147.47,55.33c2.89-1.48,5.79-2.96,8.68-4.45-.77-1.5-1.54-3-2.31-4.51,1.06-.54,2.12-1.09,3.18-1.63,1.47,2.86,2.93,5.72,4.4,8.59-3.95,2.02-7.91,4.05-11.86,6.07-.7-1.36-1.39-2.72-2.09-4.08Zm14.44-5c-.39-.76-.49-1.49-.31-2.21.18-.71.63-1.25,1.34-1.62.71-.36,1.42-.42,2.12-.16.7.26,1.25.77,1.64,1.53.39.76.48,1.5.28,2.22-.2.72-.66,1.26-1.37,1.63-.71.36-1.41.41-2.1.15-.69-.27-1.22-.78-1.61-1.54Z"/>
    <path  d="m153.12,71.05c-.35-1.36-.4-2.65-.15-3.88.25-1.23.8-2.29,1.64-3.19.84-.9,1.98-1.53,3.4-1.9,1.41-.36,2.7-.35,3.87.03,1.17.38,2.16,1.02,2.97,1.92.81.89,1.36,1.91,1.66,3.07.35,1.36.37,2.57.04,3.62-.32,1.05-.9,1.93-1.73,2.63-.83.7-1.82,1.2-2.97,1.5-.38.1-.75.17-1.11.22-.36.05-.63.08-.79.08-.81-3.12-1.61-6.24-2.42-9.37.96-.25,1.93-.5,2.89-.75.54,2.1,1.09,4.2,1.63,6.29-.31-.14-.62-.28-.93-.42.86-.22,1.47-.56,1.83-1.02.36-.46.44-1.05.26-1.77-.15-.57-.39-1.01-.73-1.34-.34-.33-.79-.53-1.35-.6-.56-.08-1.23-.01-2,.19-.81.21-1.43.51-1.86.91-.43.39-.69.88-.79,1.47-.1.58-.04,1.27.16,2.06.13.52.33,1,.58,1.46.26.46.59.94.99,1.44-.75.71-1.51,1.42-2.26,2.12-.68-.65-1.27-1.4-1.77-2.27-.5-.86-.85-1.7-1.06-2.51Z"/>
    <path  d="m155.14,87.48c-.06-1.78.43-3.13,1.47-4.06,1.04-.93,2.43-1.43,4.15-1.49,3.16-.11,6.32-.21,9.48-.32-.05-1.33-.09-2.66-.14-4,1.19-.04,2.38-.08,3.57-.12.1,2.86.19,5.72.29,8.58-4.4.15-8.81.3-13.21.45-.76.03-1.28.26-1.54.71-.26.44-.38.9-.37,1.36,0,.28.05.58.12.88.07.3.18.64.32,1.03-1.11.37-2.21.73-3.32,1.1-.24-.7-.43-1.35-.57-1.93-.14-.58-.23-1.31-.26-2.18Z"/>
    <path  d="m152.53,108.26c5.31,2.27,10.62,4.54,15.93,6.8-.61,1.43-1.22,2.86-1.83,4.29-1.92-.31-3.83-.61-5.75-.92-.75-.15-1.5-.29-2.25-.44-.01.03-.03.07-.04.1.62.44,1.25.88,1.87,1.32,1.55,1.17,3.09,2.35,4.64,3.52-.61,1.43-1.22,2.86-1.83,4.29-5.31-2.27-10.62-4.54-15.93-6.8.5-1.16.99-2.32,1.49-3.48,1.25.53,2.5,1.07,3.75,1.6.47.2,1.06.48,1.76.83.7.35,1.44.72,2.21,1.1.77.39,1.5.77,2.19,1.14.69.37,1.25.68,1.69.92.01-.02.02-.05.03-.07-1.38-1.12-2.77-2.25-4.15-3.37-.85-.69-1.69-1.38-2.54-2.07.27-.62.53-1.24.8-1.86,1.09.12,2.18.24,3.27.35,1.75.26,3.5.53,5.25.79.01-.03.03-.07.04-.1-.48-.15-1.09-.34-1.84-.58-.75-.24-1.53-.51-2.34-.8-.81-.29-1.59-.57-2.32-.83-.74-.27-1.34-.5-1.82-.7-1.25-.53-2.5-1.07-3.75-1.6.49-1.14.98-2.29,1.47-3.43Z"/>
    <path  d="m143.61,125.4c.54-.75,1.15-1.27,1.83-1.57.68-.3,1.38-.4,2.08-.31.7.09,1.35.34,1.94.77,1.21.87,1.76,2.06,1.65,3.57-.11,1.51-.99,3.54-2.63,6.1.29.14.58.19.87.13.29-.05.58-.2.87-.44.29-.24.58-.56.87-.96.22-.3.41-.64.57-1,.16-.36.3-.77.42-1.22.12-.45.23-.97.34-1.54,1.12.15,2.24.3,3.36.44-.09.77-.23,1.51-.42,2.23-.19.72-.43,1.41-.74,2.06-.31.66-.68,1.29-1.11,1.89-.74,1.02-1.55,1.79-2.45,2.29-.9.5-1.87.7-2.91.58-1.04-.12-2.16-.6-3.34-1.45-2.01-1.44-4.01-2.88-6.02-4.32.73-1.01,1.45-2.02,2.18-3.03.44.18.88.37,1.31.55.02-.03.04-.06.06-.09,0-.81.08-1.63.26-2.44.18-.81.51-1.56,1-2.24Zm1.99,3.26c-.31.43-.51.88-.59,1.35-.08.47-.12.92-.11,1.36.46.33.92.66,1.38,1,.6-.9,1.01-1.64,1.22-2.21.21-.57.28-1.02.2-1.35-.08-.33-.24-.58-.49-.76-.16-.11-.33-.17-.52-.17-.18,0-.37.06-.55.2-.18.13-.37.33-.55.59Z"/>
    <path  d="m137.22,134.37c2.96,3.31,5.92,6.62,8.88,9.93-.93.83-1.85,1.66-2.78,2.49-.43-.33-.87-.65-1.3-.98-.03.02-.05.05-.08.07-.05.74-.22,1.49-.51,2.26-.29.77-.8,1.48-1.52,2.13-1.1.98-2.23,1.33-3.39,1.05-1.16-.29-2.29-1.04-3.39-2.27l-5.47-6.12,3.42-3.06c1.69,1.89,3.39,3.79,5.08,5.68.5.56.94.89,1.33.99.39.1.8-.04,1.24-.43.32-.28.54-.6.66-.95.12-.35.21-.76.26-1.23-1.94-2.17-3.89-4.34-5.83-6.51,1.14-1.02,2.28-2.04,3.42-3.06Z"/>
    <path  d="m119.19,147.56c1.22-.69,2.46-1.07,3.72-1.14,1.25-.07,2.42.18,3.5.77,1.08.58,1.98,1.52,2.71,2.81.72,1.29,1.02,2.56.89,3.82-.13,1.26-.57,2.43-1.34,3.49-.77,1.06-1.75,1.93-2.94,2.6-.91.51-1.83.85-2.76,1-.92.15-1.76.13-2.5-.07.14-1.16.29-2.32.43-3.48.6.05,1.12.03,1.57-.07.45-.1.85-.25,1.22-.46.57-.32,1.02-.72,1.34-1.21.32-.49.48-1.01.49-1.59,0-.57-.16-1.15-.49-1.74-.33-.59-.74-1.03-1.22-1.33-.48-.3-1-.45-1.56-.44-.56,0-1.11.16-1.65.47-.57.32-1.04.72-1.4,1.18-.36.47-.66.93-.91,1.4-1-.54-1.99-1.08-2.99-1.62.38-.99.93-1.86,1.65-2.61.72-.75,1.47-1.34,2.24-1.78Z"/>
    <path  d="m107.45,152.87c.93,3.11,1.87,6.23,2.8,9.34,1.62-.48,3.23-.97,4.85-1.45.34,1.14.68,2.28,1.02,3.42-3.08.92-6.16,1.85-9.24,2.77-1.27-4.25-2.55-8.51-3.82-12.76,1.46-.44,2.93-.88,4.39-1.32Zm2.3,15.11c.82-.24,1.56-.21,2.23.1.67.31,1.12.85,1.35,1.61.23.77.15,1.47-.23,2.11-.38.64-.98,1.09-1.8,1.33-.82.24-1.56.2-2.23-.12-.67-.33-1.12-.87-1.35-1.64-.23-.77-.15-1.46.24-2.09.39-.63.99-1.06,1.81-1.31Z"/>
    <path  d="m94.05,155.36c1.49-.11,2.6.31,3.32,1.25.73.94,1.15,2.23,1.27,3.88.2,2.73.39,5.46.59,8.19-1.52.11-3.05.22-4.57.33-.18-2.53-.36-5.07-.54-7.6-.05-.74-.19-1.28-.42-1.6-.23-.32-.64-.46-1.25-.42-.39.03-.73.13-1.02.3-.29.17-.59.51-.89,1.01.2,2.85.41,5.71.61,8.56-1.52.11-3.05.22-4.57.33-.32-4.43-.64-8.86-.95-13.29,1.24-.09,2.48-.18,3.72-.27.15.58.3,1.15.44,1.73.04,0,.07,0,.11,0,.5-.68,1.09-1.23,1.75-1.65.66-.42,1.47-.67,2.41-.73Z"/>
    <path  d="m68.16,153.76c-2.06,5.39-4.13,10.78-6.19,16.18l-4.65-1.78c-1.54-.59-2.8-1.38-3.78-2.38-.98-.99-1.58-2.21-1.8-3.64-.22-1.44.03-3.11.76-5.02.73-1.91,1.66-3.34,2.78-4.29,1.12-.95,2.37-1.48,3.74-1.61,1.37-.12,2.78.09,4.24.65,1.63.63,3.27,1.25,4.9,1.88Zm-5.6,1.79s-.1-.04-.15-.06c-.7-.27-1.38-.38-2.04-.33-.67.05-1.29.35-1.89.9-.59.55-1.13,1.46-1.61,2.72-.48,1.26-.68,2.28-.6,3.07.08.78.36,1.4.83,1.86.47.46,1.06.82,1.75,1.08.05.02.1.04.15.06,1.19-3.1,2.38-6.21,3.56-9.31Z"/>
    <path  d="m51.01,145.62c.77.51,1.32,1.1,1.64,1.77.32.67.45,1.36.39,2.06-.06.71-.29,1.36-.7,1.97-.82,1.24-1.99,1.84-3.5,1.79-1.51-.05-3.58-.85-6.2-2.4-.13.3-.17.59-.1.88.07.29.22.57.47.86.25.28.58.56,1,.84.31.21.65.38,1.02.53.37.15.78.27,1.24.37.46.1.98.19,1.56.28-.11,1.12-.21,2.25-.32,3.37-.77-.06-1.52-.17-2.24-.33-.73-.16-1.42-.38-2.09-.66-.67-.28-1.31-.63-1.93-1.04-1.05-.7-1.85-1.48-2.38-2.36-.54-.88-.77-1.84-.69-2.89.08-1.05.52-2.18,1.32-3.39,1.36-2.06,2.73-4.12,4.09-6.18l3.11,2.06c-.17.44-.33.89-.5,1.33.03.02.06.04.09.06.81-.04,1.63.02,2.45.17.82.15,1.58.45,2.27.91Zm-3.19,2.11c-.44-.29-.9-.47-1.37-.54-.47-.07-.92-.08-1.37-.06-.31.47-.63.95-.94,1.42.92.57,1.67.95,2.25,1.14.58.19,1.03.24,1.36.15.33-.09.57-.26.74-.52.11-.16.16-.34.15-.52,0-.18-.08-.37-.22-.54-.14-.18-.34-.35-.61-.53Z"/>
    <path  d="m41.8,139.57c-3.2,3.08-6.39,6.17-9.59,9.25-.86-.89-1.73-1.79-2.59-2.68.31-.45.62-.89.93-1.34-.02-.03-.05-.05-.07-.08-.74-.03-1.5-.17-2.28-.43-.78-.26-1.51-.74-2.19-1.44-1.02-1.06-1.42-2.18-1.17-3.35.24-1.17.96-2.33,2.14-3.48,1.97-1.9,3.94-3.8,5.91-5.7,1.06,1.1,2.12,2.2,3.18,3.3-1.83,1.76-3.66,3.53-5.48,5.29-.54.52-.85.97-.94,1.37-.09.39.07.8.48,1.22.3.31.62.51.97.62.35.11.76.18,1.24.21,2.1-2.02,4.19-4.05,6.29-6.07,1.06,1.1,2.12,2.2,3.18,3.3Z"/>
    <path  d="m14.73,130.09c.45.73.6,1.45.47,2.18-.13.73-.53,1.3-1.22,1.71-.68.42-1.38.52-2.1.32-.72-.21-1.3-.67-1.75-1.4-.45-.73-.6-1.46-.45-2.19.14-.73.56-1.31,1.24-1.73.68-.42,1.38-.52,2.08-.3.7.21,1.28.69,1.72,1.41Zm14.02-6.09c-2.77,1.7-5.55,3.4-8.32,5.09l2.64,4.32c-1.02.62-2.03,1.24-3.05,1.87-1.68-2.74-3.36-5.49-5.04-8.23,3.79-2.32,7.58-4.64,11.36-6.96.8,1.3,1.6,2.61,2.39,3.91Z"/>
    <path  d="m21.92,108.76c.45,1.33.6,2.62.45,3.86-.16,1.25-.62,2.35-1.39,3.31-.77.96-1.85,1.68-3.25,2.15-1.38.47-2.67.56-3.87.27-1.2-.29-2.24-.86-3.11-1.68-.87-.83-1.5-1.8-1.89-2.93-.45-1.33-.56-2.53-.32-3.61.24-1.08.75-2,1.52-2.76.77-.76,1.72-1.34,2.85-1.72.37-.13.73-.23,1.09-.3.36-.08.62-.12.78-.14,1.04,3.05,2.09,6.1,3.13,9.15-.94.32-1.88.64-2.82.97-.7-2.05-1.4-4.1-2.1-6.15.32.12.64.23.96.35-.84.29-1.42.67-1.74,1.16-.32.49-.36,1.08-.12,1.79.19.55.47.98.83,1.28.36.3.83.46,1.39.49.56.03,1.23-.08,1.98-.34.79-.27,1.38-.62,1.78-1.05.4-.43.62-.94.68-1.53.05-.59-.05-1.27-.32-2.05-.17-.5-.4-.97-.69-1.41-.29-.44-.66-.89-1.1-1.36l2.09-2.29c.73.6,1.38,1.3,1.94,2.13.56.82.98,1.63,1.25,2.42Z"/>
    <path  d="m18.67,92.55c.19,1.77-.19,3.15-1.16,4.16-.97,1.01-2.31,1.61-4.02,1.8-3.14.35-6.29.69-9.43,1.04.15,1.32.29,2.65.44,3.97-1.18.13-2.37.26-3.55.39-.31-2.84-.62-5.69-.94-8.53l13.14-1.44c.76-.08,1.25-.36,1.48-.82.23-.46.31-.92.26-1.38-.03-.28-.09-.57-.19-.86-.09-.29-.23-.63-.39-1,1.08-.45,2.15-.9,3.23-1.35.29.68.53,1.31.72,1.88.19.57.33,1.29.42,2.15Z"/>
  </g>
  <g>
    <path  d="m109.8,109.43c-.83-4.01-1.02-7.78-.83-11.45,6.84-3.32,14.29-6.82,22.1-11.15,0-.1.02-.2.02-.3-7.21-3.34-13.02-6.89-18.49-10.79.67-3.94,1.2-8.1,1.32-12.64,9.4,7.27,17.6,12.93,30.37,17.75,0,3.06,0,6.13,0,9.19-13.41,8-25.34,13.32-34.49,19.4Z"/>
    <path  d="m57.59,107.83c-9.46-7.31-17.62-12.99-30.36-17.79,0-3.06,0-6.13,0-9.19,13.38-8.03,25.35-13.36,34.57-19.4.79,3.99.95,7.75.74,11.42-6.85,3.32-14.31,6.83-22.11,11.17,0,.1-.02.2-.02.3,7.19,3.34,12.98,6.88,18.46,10.79-.66,3.96-1.17,8.14-1.27,12.7Z"/>
    <path  d="m65.67,119.72c2.26-30.68,26.34-39.6,26.15-68.95,3.75,0,7.5,0,11.25,0-1.75,30.51-25.9,39.25-26.15,68.95-3.75,0-7.5,0-11.25,0Z"/>
  </g>
</svg>