<?xml version="1.0" encoding="UTF-8"?>
<svg id="logo-circular" data-name="Layer 1" xmlns="http://www.w3.org/2000/svg" viewBox="0 0 214.06 214.06">
  <defs>
    <style>
      .dark {
        fill: #231f20;
      }
      .light {
        fill: #ffffff;
      }
    </style>
  </defs>
  <g>
    <path d="m31.65,73.73l-9.75,7.45-2.88-1.05-2.65-11.98,3.82,1.4,1.49,7.63.1.04,6.05-4.87,3.82,1.4Z"/>
    <path d="m38.23,72.02l-15.19-9.37,1.94-3.15,1.2.37.06-.09c-.12-.67-.13-1.36-.04-2.05.1-.69.32-1.33.67-1.9.56-.91,1.28-1.55,2.16-1.92.88-.37,1.86-.47,2.94-.31,1.08.16,2.2.59,3.35,1.31,1.29.79,2.25,1.7,2.87,2.71.62,1.02.95,2.03.97,3.05.02,1.02-.22,1.94-.73,2.76-.29.48-.67.87-1.13,1.18-.46.31-.98.53-1.56.67l-.06.09,1.82.87,3.1,1.91-2.38,3.87Zm-3.51-9.61c.19-.31.28-.66.26-1.03-.02-.37-.19-.77-.5-1.2-.32-.42-.84-.86-1.55-1.3-.61-.38-1.15-.62-1.61-.73-.46-.11-.85-.1-1.18.03-.33.13-.61.38-.84.75-.19.3-.3.61-.33.94-.04.33.01.72.14,1.17l4.14,2.55c.34-.12.64-.28.88-.5.24-.21.44-.44.6-.7Z"/>
    <path d="m43.34,54.78l-2.97-2.78,1.62-7.6-.08-.07-7.48,2.11-2.97-2.78,11.89-3.04,2.23,2.09-2.26,12.06Z"/>
    <path d="m55.47,43.58l-9.92-14,9.58-6.79,2.2,3.1-5.88,4.17,1.89,2.67,5.04-3.57,2.2,3.1-5.04,3.57,3.63,5.13-3.71,2.63Z"/>
    <path d="m69.47,34.41l-5.31-12.08,3.41-1.5,1.44,2.42.1-.04c.14-1.25.53-2.29,1.16-3.1.63-.82,1.4-1.42,2.3-1.82.56-.25,1.02-.4,1.38-.45.35-.05.73-.08,1.13-.08l.71,3.84c-.4.04-.77.1-1.1.18-.33.08-.71.21-1.15.4-.69.31-1.29.81-1.78,1.52-.5.71-.75,1.67-.75,2.88l2.64,5.99-4.16,1.83Z"/>
    <path d="m89.89,27.59c-1.14.24-2.27.21-3.4-.11s-2.12-.91-2.97-1.78c-.85-.87-1.43-2.02-1.74-3.45-.31-1.43-.25-2.71.17-3.86.42-1.14,1.08-2.09,1.98-2.84.9-.75,1.92-1.25,3.05-1.49,1.14-.24,2.27-.21,3.4.11,1.13.32,2.12.91,2.97,1.78.85.87,1.43,2.02,1.74,3.45.31,1.43.25,2.72-.17,3.86-.42,1.14-1.08,2.09-1.98,2.84-.9.75-1.92,1.25-3.05,1.49Zm-.76-3.56c.5-.11.88-.32,1.13-.65.25-.32.4-.74.45-1.26.04-.51,0-1.1-.15-1.75-.14-.65-.34-1.21-.58-1.66-.25-.45-.56-.77-.92-.96-.36-.19-.8-.23-1.3-.13-.5.11-.88.32-1.13.65-.25.32-.4.74-.45,1.26-.04.51,0,1.1.15,1.75.14.65.34,1.21.58,1.66.25.45.56.77.92.96.37.19.8.23,1.3.13Z"/>
    <path d="m99.93,25.53l-.15-13.2,3.7-.04.33,1.58h.11c.52-.52,1.14-.97,1.86-1.36.72-.39,1.56-.58,2.53-.59,1.46-.02,2.53.46,3.21,1.43s1.03,2.27,1.05,3.91l.09,8.13-4.54.05-.08-7.55c0-.74-.12-1.27-.35-1.61-.22-.33-.63-.49-1.21-.49-.42,0-.79.1-1.11.28-.31.18-.65.43-1,.75l.1,8.66-4.54.05Z"/>
    <path d="m124.68,27.66c-1.42-.27-2.5-.73-3.26-1.38-.75-.65-1.24-1.44-1.45-2.39-.21-.94-.21-2,.02-3.16l.77-3.99-3.11-.6.64-3.32,3.35.48,1.32-3.78,3.68.71-.75,3.89,5.13.99-.67,3.47-5.13-.99-.75,3.91c-.12.61-.11,1.1,0,1.5.12.39.35.69.7.91.34.22.79.38,1.34.49.45.09.88.13,1.28.13.4,0,.79-.03,1.16-.09l.16,3.36c-.6.05-1.27.07-2.01.08-.74,0-1.55-.07-2.43-.24Z"/>
    <path d="m138.85,32.24c-1.29-.53-2.34-1.26-3.16-2.2-.82-.93-1.34-2-1.55-3.2s-.03-2.48.53-3.82c.55-1.33,1.33-2.35,2.33-3.05,1-.7,2.1-1.1,3.29-1.21,1.19-.11,2.33.07,3.42.52,1.28.53,2.25,1.24,2.89,2.13.64.89.99,1.86,1.05,2.94.06,1.07-.14,2.15-.59,3.24-.15.36-.31.7-.49,1.01-.18.32-.32.54-.41.67l-8.85-3.67,1.13-2.73,5.95,2.47-.89.49c.34-.81.43-1.5.28-2.06-.15-.56-.57-.98-1.25-1.26-.54-.22-1.04-.29-1.5-.22s-.89.31-1.28.71c-.39.4-.74.96-1.05,1.69-.32.77-.45,1.43-.39,2.01.06.58.29,1.08.69,1.5.41.42.98.79,1.73,1.1.49.2.99.34,1.5.41.51.07,1.09.1,1.73.07l.33,3.05c-.92.15-1.87.17-2.85.05-.98-.12-1.85-.34-2.61-.66Z"/>
    <path d="m147.56,35.95l7.4-10.93,3.06,2.07-.63,1.49.09.06c.72-.13,1.49-.15,2.3-.05.81.09,1.62.41,2.42.95,1.21.82,1.82,1.82,1.82,3,0,1.18-.45,2.45-1.37,3.81l-4.56,6.73-3.76-2.54,4.23-6.25c.42-.61.62-1.12.63-1.52,0-.4-.23-.76-.71-1.09-.35-.24-.71-.37-1.07-.4-.36-.03-.78-.02-1.25.05l-4.85,7.17-3.76-2.55Z"/>
    <path d="m164.2,49.27c-1.17-1.19-1.66-2.58-1.48-4.17.18-1.58,1.04-3.12,2.56-4.61,1.03-1.01,2.1-1.68,3.21-2.02,1.11-.34,2.16-.4,3.15-.18.99.22,1.8.65,2.44,1.3.49.5.83,1.01,1,1.51.17.51.25,1.04.22,1.62l.07.08,1.21-1.48,3.06-2.99,3.18,3.24-13.13,12.85-2.58-2.64.65-1.08-.07-.08c-.63-.02-1.27-.14-1.9-.37-.63-.23-1.16-.56-1.58-.99Zm3.47-1.74c.26.26.54.45.83.57.3.12.66.13,1.1.05l3.47-3.4c0-.36-.08-.68-.22-.94-.14-.27-.32-.52-.54-.74-.26-.26-.58-.44-.95-.53-.37-.09-.79-.04-1.26.15-.47.19-.98.55-1.53,1.09-.84.82-1.32,1.54-1.42,2.15-.11.61.07,1.15.52,1.61Z"/>
    <path d="m179.08,67.04l-.07-12.27,2.57-1.66,11.16,5.11-3.42,2.21-6.98-3.41-.09.06.24,7.76-3.42,2.21Z"/>
    <path d="m176.87,73.15l24.56-.21,1.36,3.49-24.56.21-1.36-3.49Z"/>
    <path d="m181.81,87.89l17.59-2.99.62,3.64-1.14.52.02.1c.54.43,1,.93,1.38,1.52.38.58.63,1.21.75,1.87.18,1.06.06,2.01-.36,2.87-.42.86-1.08,1.58-2,2.17-.92.59-2.04,1-3.38,1.23-1.49.25-2.81.21-3.95-.15-1.14-.35-2.05-.9-2.74-1.65-.69-.75-1.12-1.6-1.28-2.55-.09-.55-.07-1.1.07-1.63.14-.53.39-1.04.73-1.53l-.02-.1-1.94.54-3.59.61-.76-4.48Zm8.97,4.9c.06.36.22.68.48.95s.65.46,1.17.57c.52.11,1.19.09,2.03-.05.71-.12,1.28-.29,1.69-.52.42-.22.71-.49.87-.8.16-.31.21-.69.13-1.12-.06-.35-.18-.66-.37-.93-.19-.27-.48-.54-.88-.79l-4.79.81c-.18.32-.29.63-.33.95-.04.32-.04.63,0,.92Z"/>
    <path d="m189.37,104.23l4.06.13,3.8,6.78h.11s4.22-6.52,4.22-6.52l4.06.13-6.92,10.14-3.06-.1-6.27-10.55Z"/>
    <path d="m185.76,131.37l8.81-8.54,2.98.71,4.03,11.59-3.96-.94-2.37-7.4-.1-.02-5.44,5.54-3.96-.94Z"/>
    <path d="m179.43,133.83l16.17,7.54-1.56,3.35-1.23-.23-.04.09c.2.66.29,1.33.27,2.04-.02.7-.17,1.36-.45,1.96-.45.97-1.1,1.69-1.92,2.16-.83.47-1.79.69-2.88.65-1.09-.03-2.25-.34-3.48-.91-1.37-.64-2.43-1.43-3.17-2.37-.74-.94-1.18-1.91-1.32-2.92-.14-1.01,0-1.95.4-2.83.24-.51.57-.95.99-1.3.42-.36.91-.64,1.47-.84l.04-.1-1.91-.65-3.3-1.54,1.92-4.12Zm4.6,9.13c-.16.33-.2.69-.14,1.06.06.37.27.74.64,1.13.36.38.93.75,1.7,1.11.65.31,1.21.48,1.69.54.47.05.86,0,1.17-.17.31-.17.56-.45.75-.85.15-.32.22-.64.22-.97,0-.33-.09-.71-.28-1.15l-4.4-2.05c-.33.16-.6.36-.82.6-.22.24-.39.49-.52.76Z"/>
    <path d="m176.34,151.57l3.27,2.42-.74,7.73.08.06,7.18-2.96,3.27,2.42-11.46,4.38-2.46-1.82.86-12.24Z"/>
    <path d="m166.17,163.55l11.47,12.76-3.67,3.3c-1.22,1.09-2.48,1.85-3.8,2.27-1.32.42-2.66.4-4.03-.05-1.37-.45-2.72-1.43-4.08-2.94-1.35-1.51-2.19-2.97-2.52-4.39-.33-1.42-.24-2.76.27-4.02.51-1.26,1.34-2.41,2.49-3.45l3.87-3.48Zm-.94,5.74l-.12.11c-.55.49-.95,1.05-1.21,1.66-.26.61-.28,1.3-.05,2.07.22.77.78,1.65,1.67,2.65.89,1,1.71,1.63,2.43,1.92.73.28,1.4.32,2.01.11.62-.21,1.2-.56,1.75-1.06l.12-.11-6.6-7.34Z"/>
    <path d="m147.44,177.55c1.2-.71,2.42-1.1,3.66-1.2,1.24-.09,2.4.14,3.48.69,1.08.56,1.99,1.47,2.73,2.73.73,1.24,1.07,2.48,1.02,3.7-.05,1.22-.39,2.34-1.02,3.35-.63,1.01-1.45,1.82-2.47,2.41-1.2.7-2.35,1.05-3.44,1.03-1.09-.02-2.09-.33-2.98-.93-.89-.6-1.64-1.41-2.23-2.42-.2-.33-.37-.67-.51-1-.15-.33-.24-.58-.29-.73l8.26-4.85,1.5,2.55-5.55,3.26.14-1c.45.76.94,1.25,1.47,1.46s1.12.14,1.76-.24c.5-.29.86-.65,1.08-1.06s.29-.9.2-1.45c-.08-.55-.32-1.17-.72-1.86-.42-.71-.88-1.22-1.37-1.52s-1.03-.42-1.62-.35c-.58.07-1.22.31-1.92.72-.46.27-.87.58-1.23.95s-.73.81-1.1,1.33l-2.64-1.57c.43-.83.99-1.59,1.68-2.3s1.38-1.27,2.1-1.69Z"/>
    <path d="m135.74,183.45l8.75,10.97-4.3,1.46-3.48-4.9c-.39-.55-.78-1.13-1.17-1.72-.39-.59-.78-1.2-1.18-1.83l-.1.03c.05.75.1,1.47.17,2.17.06.7.11,1.4.13,2.07l.23,6-4.1,1.4.1-13.98,4.95-1.68Z"/>
    <path d="m116.51,187.74c1.38-.17,2.66-.06,3.83.34,1.18.4,2.15,1.07,2.93,2.01.77.94,1.25,2.13,1.44,3.58.18,1.43,0,2.7-.52,3.8-.53,1.1-1.28,2-2.26,2.68-.98.68-2.05,1.1-3.22,1.24-1.38.17-2.57.04-3.56-.42-1-.45-1.79-1.13-2.37-2.03s-.95-1.94-1.1-3.11c-.05-.38-.07-.76-.07-1.12,0-.36,0-.63.02-.79l9.51-1.2.37,2.93-6.39.81.53-.87c.11.87.37,1.51.77,1.92.41.41.98.57,1.71.48.58-.07,1.05-.26,1.41-.55.36-.29.61-.71.76-1.25.14-.54.17-1.21.07-1.99-.1-.82-.32-1.47-.66-1.94-.33-.47-.78-.79-1.35-.96-.56-.17-1.24-.2-2.05-.1-.52.07-1.03.2-1.51.39-.48.19-.99.46-1.54.79l-1.8-2.49c.72-.59,1.54-1.07,2.45-1.45.91-.38,1.78-.62,2.6-.73Z"/>
    <path d="m98.54,187.88c1.75.13,3.04.76,3.84,1.89.81,1.13,1.15,2.54,1.02,4.24l-.69,9.37,3.95.29-.26,3.53-8.48-.63.96-13.06c.06-.75-.12-1.28-.53-1.59-.41-.3-.84-.47-1.3-.51-.28-.02-.57-.01-.88.03-.3.04-.65.11-1.05.2l-.73-3.39c.72-.16,1.37-.28,1.96-.36.59-.08,1.31-.09,2.17-.02Z"/>
    <path d="m84.81,185.21c1.12.32,2.1.88,2.95,1.69.85.81,1.45,1.8,1.79,2.96.35,1.17.32,2.46-.08,3.86-.4,1.4-1.05,2.51-1.96,3.33-.91.81-1.93,1.34-3.08,1.58-1.15.24-2.28.2-3.4-.12-1.12-.32-2.1-.88-2.95-1.69-.85-.81-1.45-1.8-1.79-2.97-.35-1.17-.32-2.46.08-3.86s1.05-2.51,1.96-3.33c.91-.81,1.94-1.34,3.08-1.58,1.15-.24,2.28-.2,3.4.12Zm-1,3.5c-.49-.14-.92-.12-1.3.04-.38.17-.71.47-.98.9-.28.43-.51.97-.69,1.61-.18.64-.27,1.22-.26,1.74,0,.51.13.94.36,1.28.23.34.59.58,1.09.72.49.14.92.13,1.3-.04.38-.17.71-.47.98-.9.28-.43.51-.97.69-1.61.18-.64.27-1.22.26-1.74,0-.52-.13-.94-.36-1.28-.23-.34-.59-.58-1.08-.72Z"/>
    <path d="m77.14,178.2l-8.23,15.83-3.28-1.71.28-1.22-.09-.05c-.66.17-1.34.23-2.05.19-.7-.05-1.35-.22-1.94-.53-.95-.49-1.64-1.17-2.08-2.02-.43-.85-.61-1.82-.53-2.91.08-1.09.43-2.23,1.06-3.44.7-1.34,1.53-2.36,2.5-3.06.97-.7,1.96-1.09,2.97-1.19,1.01-.1,1.95.08,2.81.52.5.26.92.61,1.26,1.04.34.44.6.94.78,1.51l.09.05.74-1.88,1.68-3.23,4.03,2.1Zm-9.32,4.2c-.33-.17-.68-.23-1.05-.19-.37.04-.76.24-1.15.59-.4.35-.79.9-1.18,1.65-.33.64-.54,1.19-.61,1.66-.07.47-.04.86.12,1.18.15.32.42.58.81.78.31.16.63.25.96.26s.72-.06,1.16-.23l2.24-4.31c-.14-.33-.33-.61-.56-.84-.23-.23-.48-.41-.74-.55Z"/>
    <path d="m55.32,169.71c1.08.87,1.88,1.88,2.41,3,.53,1.13.72,2.3.58,3.51-.14,1.21-.67,2.38-1.59,3.52-.91,1.12-1.94,1.88-3.1,2.26-1.16.39-2.33.46-3.5.23-1.17-.23-2.21-.72-3.13-1.46-1.08-.87-1.8-1.83-2.17-2.86-.36-1.03-.42-2.07-.18-3.12.25-1.05.74-2.03,1.48-2.95.24-.3.5-.58.76-.83.26-.25.46-.43.58-.53l7.45,6.03-1.86,2.3-5.01-4.05.99-.22c-.55.68-.84,1.31-.85,1.89-.01.58.27,1.1.84,1.56.45.36.91.58,1.37.63.46.06.94-.05,1.43-.32.49-.27.99-.71,1.48-1.33.52-.64.83-1.25.94-1.82s.03-1.11-.24-1.64c-.27-.52-.72-1.04-1.35-1.55-.41-.33-.85-.6-1.32-.82-.47-.21-1.02-.4-1.64-.56l.54-3.02c.93.12,1.84.37,2.75.76.9.39,1.68.85,2.32,1.37Z"/>
    <path d="m47.36,162.89l-10.18,8.4-2.37-2.87,1.94-2.05-.07-.08c-1.24.21-2.35.12-3.3-.27-.96-.38-1.75-.96-2.38-1.72-.39-.47-.66-.88-.8-1.2s-.27-.68-.38-1.07l3.5-1.73c.15.38.31.71.47,1.01.17.3.4.63.7,1,.48.58,1.13,1.02,1.95,1.3.82.28,1.81.26,2.98-.06l5.05-4.17,2.89,3.5Z"/>
    <path d="m31.82,140.71l-.98,12.24-2.71,1.44-10.68-6.05,3.59-1.91,6.66,4,.09-.05.43-7.76,3.59-1.91Z"/>
    <path d="m34.54,134.8l-24.49-1.91-1.05-3.6,24.49,1.91,1.05,3.6Z"/>
    <path d="m30.89,119.69l-17.78,1.48-.31-3.68,1.18-.42v-.11c-.51-.47-.92-1.01-1.26-1.63-.33-.62-.53-1.26-.58-1.92-.09-1.07.11-2.01.6-2.83.49-.82,1.21-1.48,2.18-2,.96-.51,2.12-.83,3.47-.94,1.51-.13,2.82.04,3.92.48,1.11.45,1.97,1.07,2.59,1.88.62.8.98,1.69,1.06,2.65.05.56-.02,1.1-.21,1.62-.19.52-.47,1-.86,1.46v.11s1.99-.38,1.99-.38l3.63-.3.38,4.52Zm-8.52-5.65c-.03-.37-.16-.7-.4-.99-.24-.29-.61-.51-1.11-.66-.51-.15-1.18-.19-2.02-.12-.72.06-1.3.18-1.73.37-.43.19-.75.43-.93.73-.19.3-.26.67-.23,1.1.03.35.13.67.29.96.17.29.44.57.81.86l4.84-.4c.2-.3.34-.61.41-.92.07-.31.09-.62.07-.92Z"/>
    <path d="m24.75,102.76l-4.04-.47-3.21-7.07h-.11s-4.76,6.13-4.76,6.13l-4.04-.47,7.76-9.51,3.04.36,5.35,11.05Z"/>
  </g>
  <g>
    <path d="m71.38,138.27v-60.56c5.03-2.97,10.3-5.36,15.71-7.15,1.64,7.6,3.29,15.6,4.96,23.91.57,3.3,1.13,6.64,1.7,10.02.13,0,.25,0,.38,0,.57-3.41,1.14-6.85,1.71-10.32,1.68-8.78,3.37-17.76,5.06-26.86,5.59-.81,11.25-1.03,16.88-.67v82.73c-4.57.3-9.15.21-13.71-.27v-19.35c0-2.44.08-5.51.24-9.22.16-3.71.34-7.61.53-11.7.19-4.09.42-8.01.67-11.73.26-3.73.48-6.78.67-9.16-.1,0-.19,0-.29.01-1.77,8.24-3.53,16.42-5.29,24.44-1.09,4.9-2.17,9.75-3.25,14.5-2.41-.22-4.81-.49-7.19-.81-1.12-4.8-2.24-9.49-3.36-14.05-1.55-7.45-3.08-14.59-4.6-21.35-.12.02-.24.05-.36.07.18,2,.39,4.6.64,7.8.24,3.2.46,6.6.64,10.18.18,3.58.35,7.02.5,10.31.15,3.29.23,6.02.23,8.18,0,5.69,0,11.39,0,17.08-4.28-1.62-8.46-3.63-12.48-6.01Z"/>
    <path d="m106.48,149.3v-82.62c6.01-.45,12.06-.23,18.04.67,5.94.89,11.11,3.72,15.5,7.6,4.39,3.9,7.73,8.88,10.1,14.29,2.37,5.46,3.53,11.36,3.53,18.48,0,7.12-1.14,13.05-3.48,18.58-2.35,5.48-5.61,10.52-9.87,14.49-4.27,3.96-9.21,6.8-14.82,7.71-6.28,1.02-12.66,1.29-18.99.82Zm16.6-17.81c.19-.01.38-.03.58-.04,2.69-.21,5.1-1.16,7.25-2.72,2.15-1.56,3.83-4.06,5.08-7.39,1.25-3.34,1.86-7.86,1.86-13.7,0-5.83-.62-10.3-1.86-13.53-1.25-3.22-2.93-5.6-5.08-7.05-2.15-1.44-4.56-2.32-7.25-2.53-.19-.02-.38-.03-.58-.04,0,15.67,0,31.33,0,47Z"/>
  </g>
</svg>