<?xml version="1.0" encoding="UTF-8"?>
<svg id="Layer_1" data-name="Layer 1" xmlns="http://www.w3.org/2000/svg" viewBox="0 0 521.91 521.88" class="light">
      .light {
        fill: #ffffff;
      }
  <path d="m0,260.03C-.07,118.39,114.53-.24,261.11,0c147.29.24,261.09,119.35,260.8,261.65-.29,141.86-115.77,263.87-268.22,260.15C112.43,518.35-.66,402.61,0,260.03Zm469.7,1.46c.3-115.68-92.5-209.43-208.83-209.47-116.24-.04-208.83,94.5-208.86,208.73-.03,112.53,89.83,209.11,208.92,208.99,119.64-.12,208.92-96.79,208.78-208.25Z"/>
  <path d="m234.81,235.01c0-2.11,0-3.6,0-5.08,0-28.87-.05-57.74.03-86.61.04-14.31,11.75-25.84,26.01-25.86,14.44-.02,26.09,11.53,26.12,26.12.07,28.87.02,57.74.02,86.61q0,4.8,4.93,4.81c28.37,0,56.74.31,85.1-.13,14.26-.22,26.36,9.74,27.58,25.63.9,11.69-10.5,25.12-22.28,26.08-2.11.17-4.24.21-6.36.21-27.87.01-55.74,0-83.61,0-1.6,0-3.2,0-5.36,0,0,1.87,0,3.31,0,4.76,0,28.99.03,57.99-.02,86.98-.02,12.75-9.67,23.81-22.27,25.75-12.62,1.94-25.31-6.19-28.79-18.62-.73-2.6-1.05-5.4-1.05-8.11-.07-28.62-.05-57.24-.05-85.86,0-1.46,0-2.92,0-4.89h-5.23c-28.37,0-56.74-.28-85.1.13-11.8.17-26.13-7.96-27.24-25.56-.79-12.48,10.78-25.97,23.31-26.1,29.49-.32,58.98-.21,88.47-.28,1.72,0,3.45,0,5.79,0Z"/>
</svg>