<?xml version="1.0" encoding="UTF-8"?>
<svg id="Layer_1" data-name="Layer 1" xmlns="http://www.w3.org/2000/svg" viewBox="0 0 176.58 176.5" class="light">
      .light {
        fill: #ffffff;
      }
  <path d="m0,88.08C.21,39.28,39.86-.19,88.48,0c48.87.19,88.21,39.89,88.1,88.69-.11,48.85-40.96,88.36-89.22,87.81C39.28,175.94-.21,136.22,0,88.08Zm91.11,49.67c.08,1.29.09,2.91.28,4.5,1.65,14.27,10.72,23.86,26.73,21.86,7.44-.93,14.04-3.99,20.07-8.23,14.11-9.94,23.94-23.2,29.69-39.43,2.97-8.38,4.13-17.04,2.6-25.88-1.86-10.8-8.7-17.65-18.96-19-7.62-1.01-14.65,1.15-21.28,4.64-12.79,6.74-22.19,16.98-29.43,29.3-5.78,9.85-9.44,20.38-9.69,32.25Zm-18.95-1.78c-.13-.02-.27-.03-.4-.05,0-.58.04-1.17,0-1.75-1.73-22.4-10.84-41.43-26.43-57.43-4.83-4.96-10.45-8.84-17.18-10.95-10.46-3.29-19.52,1.52-22.52,12.06-1.45,5.1-2.06,10.31-1.6,15.6,1.64,18.82,8.77,35.42,20.54,50.07,5.7,7.08,12.39,12.98,20.97,16.42,11.72,4.7,21.95-.47,24.88-12.76.87-3.67,1.18-7.47,1.74-11.21Zm18.04-71.4c3.26-.35,8.3-.66,13.25-1.48,10.34-1.71,20.12-4.96,28.45-11.64,12.7-10.17,12.59-24.84-.24-34.87-5.12-4-10.85-6.88-17.04-8.76-17.07-5.18-34.23-5.38-51.36-.35-9.17,2.69-17.58,6.84-23.62,14.62-6.11,7.87-5.77,17.52.73,25.1,3.28,3.82,7.23,6.77,11.67,9.1,11.4,5.96,23.69,7.94,38.15,8.29Z"/>
  <path d="m97.22,28.5c.2,3.16.27,5.85.56,8.52.19,1.71-.44,2.22-2.04,2.15-4.38-.17-8.75-.27-13.13-.39-.71-.02-1.41,0-2.12,0-.09.22-.18.44-.27.66,5.07,2.95,10.14,5.9,15.71,9.14-4.03,2.27-7.61,4.32-11.24,6.28-.38.21-1.14,0-1.58-.25-10.51-6.03-21-12.08-31.49-18.14-.12-.07-.22-.19-.62-.54,1.13-.67,2.22-1.15,3.12-1.88,5.18-4.17,11.05-5.08,17.46-4.13,3.09.46,6.26.39,9.39.68,1.53.14,2.03-.47,1.82-1.86-.43-2.81-.84-5.63-1.34-8.43-.26-1.43.15-2.27,1.49-2.96,2.66-1.37,5.16-3.04,7.83-4.39.84-.42,2.24-.61,2.98-.19,10.35,5.86,20.64,11.84,30.94,17.8.24.14.43.36.99.82-3.77,2.15-7.31,4.24-10.94,6.16-.5.26-1.54-.19-2.19-.56-4.07-2.3-8.08-4.68-12.14-7-.91-.52-1.9-.89-3.17-1.48Z"/>
</svg>