<?xml version="1.0" encoding="UTF-8"?>
<svg id="Layer_1" data-name="Layer 1" xmlns="http://www.w3.org/2000/svg" viewBox="0 0 103.42 50.66">
  <defs>
    <style>
      .cls-1 {
        fill: #fff;
      }

      .cls-2 {
        fill: #231f20;
        stroke: #fff;
        stroke-miterlimit: 10;
        stroke-width: .5px;
      }
    </style>
  </defs>
  <path class="cls-1" d="m57.26,2.45c-1.31.37-2.2.77-2.67,1.21-.47.43-.8,1.01-.98,1.74-.19.73-.28,2.02-.28,3.88v32.1c0,1.51.07,2.7.22,3.58s.45,1.55.91,2c.46.46,1.39.87,2.8,1.24v2.45h-19.04v-2.45c1.09-.3,1.84-.56,2.26-.78s.75-.51.98-.87c.23-.36.41-.9.52-1.63s.17-1.94.17-3.62v-18.18c0-2,.04-4.37.11-7.09.07-2.72.15-4.65.22-5.79h-.78c-.3.99-.61,1.96-.95,2.91-.33.95-.96,2.65-1.88,5.1l-9.95,26.79h-6.53L11.95,14.96c-.62-1.71-1.16-3.4-1.63-5.08h-.67c.25,4.08.37,8.91.37,14.47v17.07c0,1.83.09,3.1.26,3.82.17.72.52,1.31,1.04,1.78s1.42.87,2.71,1.19v2.45H0v-2.45c.92-.25,1.64-.52,2.17-.82.53-.3.93-.69,1.21-1.19.27-.5.44-1.13.5-1.89.06-.77.09-1.74.09-2.93V9.28c0-1.88-.08-3.17-.24-3.86-.16-.69-.48-1.26-.95-1.71-.47-.45-1.4-.87-2.78-1.26V0h18.44l10.28,30.47L39.85,0h17.4v2.45Z"/>
  <path class="cls-1" d="m76.56,0c4.13,0,7.58.32,10.35.96,2.77.64,5.23,1.66,7.38,3.04,2.15,1.39,3.89,3.04,5.21,4.95,1.32,1.92,2.31,4.14,2.95,6.68.64,2.54.96,5.4.96,8.59,0,3.86-.45,7.32-1.35,10.39-.9,3.07-2.26,5.69-4.06,7.87-1.61,1.96-3.58,3.56-5.92,4.82s-5.03,2.15-8.07,2.67c-2.62.45-5.93.67-9.91.67h-16.85v-2.45c.92-.25,1.64-.51,2.17-.8.53-.28.93-.68,1.19-1.19.26-.51.43-1.15.5-1.93s.11-1.76.11-2.95V9.35c0-1.16-.03-2.14-.09-2.93-.06-.79-.22-1.43-.48-1.93-.26-.49-.66-.9-1.19-1.21-.53-.31-1.27-.59-2.21-.83V0h19.3Zm-3.82,46.16c.45.07,1.57.11,3.38.11,2.72,0,5.01-.4,6.87-1.19,1.38-.59,2.56-1.41,3.52-2.45,1.61-1.71,2.82-3.92,3.64-6.64.89-2.97,1.34-6.59,1.34-10.87,0-4.7-.63-8.6-1.89-11.71-1.26-3.1-3.04-5.39-5.32-6.87-2.29-1.47-5.03-2.21-8.22-2.21-1.53,0-2.63.02-3.3.07v41.75Z"/>
  <path class="cls-2" d="m62.14.64l-15.09,49.7-3.35.02L58.84.66l3.3-.02Z"/>
  <path class="cls-2" d="m4.68,26.65v-4.08L43.51,6.51v4.37L9.39,24.61l34.12,13.73v4.37L4.68,26.65Z"/>
  <path class="cls-2" d="m63.69,42.71v-4.37l34.12-13.73-34.12-13.73v-4.37l38.83,16.06v4.08l-38.83,16.06Z"/>
  <polygon class="cls-1" points="25.67 36.3 31.52 38.1 33.08 33.9 28.72 30.47 25.67 36.3"/>
  <polygon class="cls-1" points="42.16 37.43 42.15 42.44 43.51 42.71 43.51 38.34 42.16 37.43"/>
  <polygon class="cls-1" points="72.73 9.92 72.73 16.08 63.04 11.48 63.23 5.51 72.73 9.92"/>
</svg>