<?xml version="1.0" encoding="UTF-8"?>
<svg id="logo-background" data-name="Layer 1" xmlns="http://www.w3.org/2000/svg" viewBox="0 0 180 180" class="">
  <defs>
    <style>
      .dark {
        fill: #231f20;
      }
      .light {
        fill: #ffffff;
      }
    </style>
  </defs>
  <path d="m53.61,108.61l-23.52-15.18v-7.04l23.52-15.18v9.35l-15.12,9.23v.24l15.12,9.23v9.35Z"/>
  <g>
    <path d="m55.32,109.42v-39c3.24-1.91,6.63-3.45,10.12-4.61,1.06,4.89,2.12,10.05,3.19,15.4.36,2.12.73,4.28,1.09,6.45.08,0,.16,0,.24,0,.37-2.19.73-4.41,1.1-6.64,1.08-5.65,2.17-11.44,3.26-17.3,3.6-.52,7.25-.67,10.87-.43v53.27c-2.94.19-5.9.13-8.83-.17v-12.46c0-1.57.05-3.55.15-5.94.1-2.39.22-4.9.34-7.54.12-2.64.27-5.16.43-7.56.16-2.4.31-4.37.43-5.9-.06,0-.12,0-.19,0-1.14,5.31-2.27,10.57-3.41,15.74-.7,3.16-1.4,6.28-2.09,9.34-1.56-.14-3.1-.31-4.63-.52-.72-3.09-1.44-6.11-2.16-9.05-1-4.8-1.98-9.4-2.96-13.75-.08.02-.16.03-.23.05.12,1.29.25,2.96.41,5.02.16,2.06.29,4.25.41,6.56.12,2.31.23,4.52.32,6.64.1,2.12.15,3.88.15,5.27,0,3.67,0,7.33,0,11-2.76-1.05-5.45-2.34-8.04-3.87Z"/>
    <path d="m77.92,116.52v-53.2c3.87-.29,7.77-.15,11.61.43,3.83.57,7.15,2.39,9.98,4.89,2.83,2.51,4.98,5.72,6.51,9.2,1.53,3.51,2.27,7.32,2.27,11.9,0,4.58-.74,8.41-2.24,11.96-1.51,3.53-3.61,6.77-6.36,9.33-2.75,2.55-5.93,4.38-9.55,4.96-4.05.66-8.15.83-12.23.53Zm10.69-11.47c.12,0,.25-.02.37-.03,1.73-.14,3.29-.75,4.67-1.75,1.38-1,2.47-2.61,3.27-4.76.8-2.15,1.2-5.06,1.2-8.82,0-3.76-.4-6.63-1.2-8.71-.8-2.07-1.89-3.61-3.27-4.54-1.38-.93-2.94-1.49-4.67-1.63-.12,0-.25-.02-.37-.03v30.27Z"/>
  </g>
  <path d="m95.04,64.09c3.13,1.58,5.32,3.36,6.7,4.66.49.46,1.23,1.16,2.09,2.21,2.09,2.54,3.1,4.94,3.73,6.47.42,1.02.93,2.28,1.31,4.04.36,1.65.46,3.09.47,4.17,6.2,1.57,12.39,3.13,18.59,4.7v.41c-6.01,1.73-12.01,3.46-18.02,5.2-.25,1.27-.63,2.76-1.26,4.38-.55,1.42-1.16,2.64-1.74,3.66-.66,1.26-1.49,2.64-2.55,4.04-2.69,3.56-5.74,5.84-8.04,7.26,18.96-6.28,37.92-12.56,56.88-18.84v-11.79c-19.39-6.85-38.77-13.7-58.16-20.56Z"/>
  <g>
    <path d="m18.84,70.92l-3.46,3.38-1.18-.27-1.61-4.57,1.56.37.94,2.92h.04s2.14-2.19,2.14-2.19l1.56.37Z"/>
    <path d="m20.3,67.39c-.14.42-.35.83-.64,1.22-.29.39-.59.71-.9.96l-.82-1.05c.29-.25.53-.53.73-.83.2-.3.35-.61.45-.93.07-.22.09-.38.07-.5-.02-.11-.08-.19-.17-.21-.06-.02-.11-.02-.17,0-.05.02-.1.07-.16.15-.06.07-.12.17-.2.3-.07.13-.17.29-.28.49-.37.63-.73,1.04-1.09,1.24-.35.2-.72.23-1.1.11-.49-.16-.81-.5-.96-1.02-.15-.52-.11-1.14.12-1.86.15-.47.36-.86.63-1.18.27-.32.53-.58.78-.79l.77,1.08c-.24.21-.44.44-.6.69s-.29.51-.37.77c-.03.11-.05.2-.06.28,0,.08,0,.15.04.21.03.06.07.1.13.12.11.03.2-.02.29-.16.09-.14.24-.39.46-.74.27-.46.53-.81.76-1.04.24-.23.47-.38.7-.43.23-.05.48-.03.76.06.31.1.56.29.74.56.19.27.29.62.31,1.04.02.42-.05.91-.23,1.47Z"/>
    <path d="m22.76,60.82c-.22.52-.48.91-.79,1.15-.31.24-.66.36-1.04.37-.38,0-.79-.08-1.22-.26l-1.48-.62-.48,1.15-1.23-.51.46-1.25-1.35-.81.57-1.36,1.44.6.79-1.9,1.29.54-.8,1.9,1.45.61c.22.09.42.13.58.12.16-.02.3-.08.41-.2.11-.12.21-.27.3-.48.07-.17.12-.33.15-.48.03-.16.05-.31.06-.46l1.31.21c-.03.24-.07.5-.13.78-.06.29-.15.59-.29.92Z"/>
    <path d="m25.86,58.46c-.07.14-.15.27-.23.38-.08.11-.16.22-.24.31l-1.06-.9c.05-.05.09-.1.13-.15.04-.05.07-.1.1-.15.13-.25.18-.46.17-.63-.02-.18-.08-.33-.18-.46l-.16-.18-5.46-.37.82-1.57,2.11.27c.26.04.53.08.79.13.27.05.54.11.83.18l.02-.04c-.21-.18-.41-.36-.61-.56-.2-.19-.4-.38-.59-.57l-1.49-1.48.78-1.5,3.65,4.1c.33.38.58.73.75,1.06.17.33.25.67.23,1.01-.01.34-.12.71-.33,1.12Z"/>
    <path d="m28.47,50.15c-.37.59-.82.92-1.37.99-.54.07-1.1-.07-1.67-.43l-3.14-1.97-.83,1.32-1.18-.74,1.78-2.84,4.37,2.75c.25.16.47.19.65.11.18-.09.32-.21.42-.36.06-.09.11-.2.15-.31.04-.11.08-.25.12-.4l1.32.37c-.08.28-.16.53-.24.75s-.21.47-.39.76Z"/>
    <path d="m31.56,45.75c-.33.44-.71.77-1.15.99-.44.22-.89.32-1.37.28-.48-.04-.95-.23-1.41-.58-.46-.34-.77-.74-.94-1.19-.17-.45-.22-.91-.14-1.37.08-.46.25-.88.53-1.26.33-.44.69-.74,1.1-.9.4-.16.81-.2,1.23-.12.42.08.81.26,1.18.54.12.09.23.19.34.29s.18.17.22.22l-2.27,3.02-.93-.7,1.52-2.03.1.39c-.28-.21-.53-.31-.76-.31-.23,0-.43.12-.6.35-.14.18-.21.37-.23.55-.02.18.03.37.15.56.11.19.3.38.55.57.26.19.5.31.73.35s.44,0,.64-.12c.2-.11.4-.3.59-.55.12-.17.23-.34.3-.53.08-.19.14-.41.2-.65l1.2.17c-.03.37-.12.73-.26,1.09s-.31.67-.51.94Z"/>
    <path d="m34.71,44.18l-4.5-8.58.98-1.11,4.5,8.58-.98,1.11Z"/>
    <path d="m37.55,38.21l-1.11-1.16.8-2.96-.03-.03-2.99.67-1.11-1.16,4.75-.94.83.87-1.15,4.7Z"/>
    <path d="m50.3,27.9l-4.84.14-.68-1,1.91-4.45.9,1.33-1.28,2.78.02.03,3.06-.17.9,1.33Z"/>
    <path d="m53.75,26.29c-.39.22-.82.37-1.29.46-.48.09-.91.12-1.31.1l.11-1.33c.38,0,.75-.03,1.1-.12.35-.09.67-.21.96-.38.2-.11.33-.22.39-.32.06-.1.07-.19.02-.27-.03-.05-.07-.09-.13-.11-.05-.02-.13-.02-.22,0-.09.02-.21.05-.35.09-.14.04-.32.1-.54.17-.7.21-1.25.27-1.64.18-.39-.09-.69-.32-.88-.67-.25-.45-.26-.91-.02-1.4.24-.49.69-.92,1.35-1.29.43-.24.85-.39,1.26-.44.41-.05.78-.07,1.11-.06l-.17,1.31c-.31,0-.62.03-.91.1-.29.07-.56.18-.79.31-.1.05-.18.11-.23.17-.06.06-.1.12-.11.18-.02.06-.01.12.02.17.05.1.16.12.32.08.16-.04.44-.12.84-.23.51-.15.93-.24,1.26-.25.33-.01.6.04.8.16.2.12.38.31.52.56.16.28.22.59.17.91-.05.33-.21.65-.48.98-.27.33-.66.63-1.17.92Z"/>
    <path d="m59.5,23.36c-.5.23-.99.34-1.48.33-.49-.01-.94-.15-1.34-.41-.4-.26-.73-.65-.97-1.18-.24-.52-.32-1.01-.26-1.49.07-.48.24-.9.53-1.28.29-.37.64-.66,1.06-.85.5-.23.96-.32,1.39-.27.43.05.81.21,1.13.48.33.27.59.62.78,1.04.06.14.12.28.16.41s.07.24.09.3l-3.43,1.58-.49-1.06,2.31-1.06-.1.39c-.15-.32-.32-.53-.52-.63-.2-.11-.43-.1-.7.02-.21.1-.36.22-.46.37-.1.15-.15.34-.14.56,0,.22.08.47.21.76.14.3.3.51.48.65.18.14.39.21.62.2.23,0,.49-.07.78-.21.19-.09.36-.19.52-.32.16-.13.32-.29.48-.48l.97.72c-.2.31-.45.59-.75.84-.3.25-.59.44-.89.58Z"/>
    <path d="m65.66,20.89c-.65.24-1.22.22-1.69-.06-.47-.27-.82-.73-1.05-1.36l-1.26-3.48-1.47.53-.48-1.31,3.15-1.14,1.76,4.85c.1.28.25.44.45.49.2.04.38.03.55-.03.1-.04.21-.09.31-.15.1-.06.22-.14.34-.24l.81,1.1c-.23.17-.45.32-.65.44-.2.12-.46.24-.78.36Z"/>
    <path d="m67.22,16.21l-.35-1.29,1.33-.42,3.26-.88.36,1.35-4.6,1.25Zm2.28,3.33l-1.37-5.04c-.1-.38-.12-.74-.04-1.1.08-.36.26-.68.55-.96.29-.28.71-.49,1.26-.64.3-.08.59-.13.87-.15.28-.01.53-.02.75-.01l.02,1.35c-.15-.02-.32-.02-.51,0-.18.01-.37.05-.55.09-.27.07-.46.18-.57.33s-.13.35-.06.62l1.37,5.04-1.73.47Z"/>
    <path d="m73.43,15.62l-.23-1.23,4.83-.89.23,1.23-4.83.89Z"/>
    <path d="m83.23,17.13c-.57.05-1.03,0-1.38-.17-.36-.16-.63-.41-.81-.75-.18-.34-.3-.73-.34-1.2l-.14-1.6-1.24.11-.12-1.33,1.32-.18.09-1.58,1.47-.13.14,1.56,2.05-.18.12,1.39-2.05.18.14,1.57c.02.24.08.43.17.57s.21.22.36.27c.15.05.34.06.56.04.18-.02.35-.05.5-.09.15-.04.3-.1.43-.16l.42,1.26c-.22.08-.47.17-.75.25-.28.08-.59.14-.95.17Z"/>
    <path d="m87.49,16.87c-.36,0-.67-.06-.92-.21-.25-.14-.45-.34-.58-.58-.14-.24-.21-.5-.21-.79-.01-.58.23-1.03.73-1.35.5-.32,1.34-.52,2.52-.6-.02-.12-.08-.23-.16-.3-.08-.08-.2-.14-.34-.17-.14-.03-.31-.05-.5-.05-.15,0-.3.02-.45.06-.15.03-.31.08-.48.15-.17.07-.36.15-.56.26l-.65-1.15c.26-.15.53-.28.79-.39.27-.11.54-.19.82-.25.28-.06.56-.09.85-.09.49-.01.92.07,1.29.23.37.16.66.42.86.78.21.35.32.81.33,1.38l.05,2.89-1.46.03-.14-.54h-.04c-.25.19-.53.36-.82.49-.3.13-.61.2-.93.21Zm.56-1.39c.21,0,.39-.05.56-.13s.32-.18.45-.28v-.67c-.44.02-.76.07-.99.13-.23.07-.38.15-.47.25-.08.1-.13.21-.12.33,0,.08.02.14.07.2.04.06.11.1.19.13.08.03.19.04.31.04Z"/>
    <path d="m93.5,16.93c-.58-.04-.99-.26-1.22-.66-.23-.4-.33-.92-.29-1.57l.21-3.2,1.79.11-.19,2.97c-.02.29,0,.5.08.64s.22.21.46.23c.15,0,.29-.01.41-.06.12-.05.25-.17.4-.34l.21-3.35,1.79.11-.33,5.19-1.45-.09-.08-.69h-.04c-.23.23-.49.41-.76.54-.28.13-.6.18-.97.16Z"/>
    <path d="m99.78,19.57c-.43-.06-.81-.16-1.15-.3-.34-.14-.6-.32-.78-.53-.18-.22-.25-.48-.2-.79.03-.21.13-.39.28-.53.16-.14.37-.25.65-.34v-.04c-.12-.12-.23-.25-.31-.41-.08-.16-.1-.34-.07-.55.03-.18.11-.34.25-.5.14-.15.31-.28.51-.38v-.04c-.17-.15-.31-.35-.41-.6-.1-.25-.13-.52-.09-.82.06-.43.22-.76.48-1.01.25-.25.56-.41.93-.49.37-.08.75-.09,1.15-.03.33.05.62.13.86.25l2.08.31-.19,1.28-.93-.14c.02.07.05.15.06.25.02.1.02.2,0,.3-.06.41-.21.72-.43.94-.23.22-.52.37-.86.44-.34.07-.72.07-1.13.01-.09-.01-.19-.03-.3-.06-.11-.03-.22-.06-.34-.11-.07.04-.12.08-.15.11s-.05.09-.06.17c-.02.11.03.2.15.26.12.07.32.12.61.16l.88.13c.68.1,1.19.28,1.53.55.34.27.48.63.41,1.11-.05.37-.23.68-.53.92-.3.24-.7.41-1.19.5s-1.06.08-1.71-.01Zm.44-1.05c.23.03.44.05.63.04.18-.01.33-.05.45-.1.11-.06.18-.13.19-.23.02-.14-.04-.23-.17-.29-.13-.05-.33-.1-.59-.14l-.51-.08c-.2-.03-.36-.06-.47-.08-.12-.03-.22-.06-.3-.09-.1.05-.17.1-.22.15-.05.05-.08.11-.09.19-.02.16.07.3.27.41.2.11.48.19.82.24Zm.42-3.73c.12.02.22,0,.33-.03.1-.04.19-.1.26-.2.07-.1.12-.23.15-.39.02-.16.01-.29-.03-.4-.04-.11-.11-.2-.19-.27-.08-.06-.19-.11-.3-.12-.11-.02-.22,0-.32.03-.1.04-.19.1-.26.2-.07.1-.12.22-.14.38-.02.16-.02.31.02.42.04.11.1.21.19.27.09.07.19.11.3.12Z"/>
    <path d="m103.95,18.07l1.66-7.05,1.74.41-.39,1.64-.31.87h.04c.2-.12.45-.22.75-.3.3-.08.64-.08,1.01.01.56.13.92.41,1.09.85.17.43.17.97.03,1.59l-.73,3.12-1.74-.41.68-2.9c.07-.28.07-.5.02-.65-.05-.15-.19-.25-.42-.3-.16-.04-.31-.04-.45,0-.14.04-.29.1-.45.19l-.78,3.33-1.74-.41Z"/>
    <path d="m112.97,20.65c-.54-.18-.94-.41-1.21-.7-.26-.29-.41-.62-.45-1-.04-.38.02-.79.16-1.23l.5-1.53-1.19-.39.41-1.27,1.29.35.7-1.42,1.41.46-.48,1.49,1.96.64-.43,1.33-1.96-.64-.48,1.5c-.08.23-.1.43-.07.58.03.16.1.29.23.39.12.1.29.19.5.26.17.05.34.09.49.11.16.02.31.03.46.02l-.1,1.32c-.24-.01-.5-.03-.79-.06-.29-.03-.6-.1-.94-.21Z"/>
    <path d="m114.89,22.94l6.67-7.03,1.36.57-6.67,7.03-1.36-.57Z"/>
    <path d="m121.47,23.69l.74-1.42,3.06-.19.02-.04-1.6-2.61.74-1.42,2.42,4.19-.56,1.07-4.82.43Z"/>
    <path d="m135.33,32.42l-1.7-4.53.73-.97,4.83.37-.96,1.28-3.05-.31-.02.03,1.15,2.84-.96,1.28Z"/>
    <path d="m137.87,34.91l2.53-2.85-1.48-1.31.93-1.04,2.82,2.5-3.46,3.89-1.34-1.19Zm4.55-3.87c-.25-.22-.39-.47-.42-.76-.03-.29.05-.55.26-.78.21-.23.46-.35.75-.36.29,0,.56.1.81.32.25.22.39.48.42.77.03.29-.06.55-.27.79-.21.23-.46.35-.74.35-.29,0-.56-.11-.81-.33Z"/>
    <path d="m140.78,37.56l3.77-3.6,1.01,1.05-.37.52.03.03c.29.01.59.07.89.17.3.1.59.29.85.57.4.42.55.85.45,1.31-.1.46-.38.91-.85,1.35l-2.32,2.21-1.24-1.3,2.15-2.06c.21-.2.33-.38.37-.53.04-.15-.03-.31-.18-.48-.11-.12-.24-.2-.38-.24-.14-.04-.3-.07-.48-.08l-2.47,2.36-1.24-1.3Z"/>
    <path d="m146.3,43.87c-.28-.34-.5-.74-.67-1.2-.17-.46-.27-.88-.31-1.27l1.33-.11c.05.38.15.73.3,1.06.14.33.32.63.53.89.14.18.27.29.38.33.11.04.2.03.27-.02.05-.04.08-.09.09-.14s0-.13-.03-.21c-.03-.09-.08-.2-.15-.33-.07-.13-.15-.3-.25-.5-.33-.66-.47-1.19-.45-1.59.03-.4.2-.73.51-.98.4-.32.86-.41,1.38-.25.52.16,1.02.53,1.49,1.12.31.38.53.77.65,1.17.12.4.2.76.24,1.08l-1.32.05c-.05-.31-.13-.6-.25-.88-.12-.28-.27-.52-.44-.73-.07-.09-.14-.15-.2-.2s-.13-.08-.2-.08c-.06,0-.12,0-.17.05-.09.07-.1.18-.03.33s.19.41.37.79c.24.48.39.88.45,1.21.07.32.06.6-.03.82-.09.22-.24.42-.47.61-.25.2-.54.31-.87.32s-.68-.09-1.04-.31c-.37-.21-.73-.54-1.1-1Z"/>
    <path d="m147.16,47.71l5.82-3.96.82,1.21-.33.37.02.04c.26.06.51.17.75.32.23.15.43.33.57.55.24.35.35.71.34,1.09,0,.38-.13.75-.36,1.11-.23.36-.57.69-1.01,1-.49.33-.97.53-1.44.59-.47.06-.88.01-1.25-.14-.37-.16-.66-.39-.88-.71-.12-.18-.21-.38-.24-.6-.04-.21-.03-.44.01-.67l-.02-.03-.61.51-1.19.81-1.01-1.48Zm4.02.29c.08.12.19.21.33.26.14.05.31.06.51.01.2-.05.44-.16.72-.35.24-.16.41-.31.52-.46.11-.15.17-.29.18-.43,0-.14-.04-.28-.14-.42-.08-.11-.17-.21-.29-.27-.11-.07-.26-.11-.45-.14l-1.58,1.08c-.01.14,0,.27.04.4.04.12.09.23.16.33Z"/>
    <path d="m153.06,53.53l3.32-1.87-.97-1.72,1.22-.69,1.85,3.28-4.53,2.56-.88-1.56Zm5.56-2.18c-.16-.29-.21-.57-.15-.86.06-.28.23-.5.5-.65.27-.15.55-.19.83-.09.28.09.5.28.66.57.16.29.21.58.14.86-.07.29-.24.5-.51.66-.27.15-.54.18-.82.09-.27-.09-.49-.29-.65-.58Z"/>
    <path d="m155.13,57.36l4.73-2.17.61,1.33-.95.58.02.04c.5.05.91.19,1.23.44.33.24.57.54.73.9.1.22.16.4.18.54.02.14.04.29.04.44l-1.51.31c-.02-.16-.05-.3-.08-.43-.03-.13-.09-.28-.17-.45-.12-.27-.33-.5-.61-.69-.28-.19-.66-.28-1.14-.28l-2.35,1.08-.75-1.63Z"/>
    <path d="m158.26,65.14c-.19-.52-.25-1.02-.2-1.51.05-.49.23-.92.52-1.3.29-.38.71-.67,1.25-.86.54-.19,1.04-.24,1.51-.13.47.11.88.32,1.23.64.35.32.6.69.76,1.13.19.52.24.98.15,1.41-.09.42-.28.79-.58,1.09-.3.3-.66.53-1.1.69-.14.05-.29.09-.43.13-.14.03-.24.05-.3.06l-1.29-3.55,1.1-.4.87,2.39-.38-.13c.33-.12.55-.27.67-.46.12-.19.13-.43.03-.7-.08-.22-.19-.38-.33-.49-.14-.11-.33-.18-.55-.18-.22,0-.48.04-.77.15-.31.11-.54.25-.69.42-.15.17-.24.37-.25.6-.02.23.03.5.14.8.07.2.16.38.28.55.12.17.26.34.44.52l-.8.91c-.29-.23-.55-.5-.77-.82s-.39-.63-.5-.94Z"/>
    <path d="m159.83,70.08c-.17-.64-.07-1.21.29-1.72s.96-.88,1.77-1.09c.55-.15,1.05-.17,1.49-.08s.82.28,1.12.54c.3.26.49.57.59.92.07.27.09.51.05.71-.04.21-.12.41-.24.6v.04s.71-.28.71-.28l1.63-.44.47,1.73-7,1.89-.38-1.41.43-.25v-.04c-.23-.13-.42-.29-.59-.49-.17-.2-.29-.42-.35-.64Zm1.53.07c.04.14.1.26.18.36.08.1.2.17.37.23l1.85-.5c.07-.13.1-.25.11-.37,0-.12-.01-.24-.04-.36-.04-.14-.11-.26-.22-.37-.11-.1-.26-.17-.46-.19-.2-.03-.44,0-.74.08-.45.12-.75.28-.9.47-.15.19-.2.41-.13.65Z"/>
    <path d="m159.34,74.32l9.53,1.75.27,1.45-9.53-1.74-.27-1.46Z"/>
    <path d="m162.32,80.25l1.6-.14,1.81,2.47h.04s1.34-2.76,1.34-2.76l1.6-.14-2.23,4.3-1.2.11-2.96-3.84Z"/>
    <path d="m162.59,96.64l2.86-3.91,1.2.08,2.33,4.24-1.6-.1-1.41-2.72h-.04s-1.75,2.51-1.75,2.51l-1.6-.1Z"/>
    <path d="m161.99,99.48l5.17.77c.38.06.73.19,1.02.4s.52.51.66.89c.14.38.17.85.08,1.41-.05.31-.12.59-.22.86-.1.26-.19.49-.29.69l-1.25-.52c.08-.14.15-.29.21-.46.06-.17.11-.35.13-.54.04-.27.02-.49-.07-.65-.09-.16-.27-.26-.54-.3l-5.17-.77.26-1.77Zm3.97-.76l1.32.2-.14,1.39-.5,3.34-1.38-.21.7-4.72Z"/>
    <path d="m160.59,106.36c.1-.45.31-.84.61-1.19.3-.35.68-.6,1.13-.76.45-.16.96-.17,1.52-.04.56.13,1.01.37,1.35.71.34.34.56.74.68,1.19.12.45.12.89.02,1.34-.11.45-.31.84-.61,1.19-.3.35-.68.6-1.14.76-.45.16-.96.17-1.52.04-.56-.13-1.01-.37-1.35-.71-.34-.34-.56-.74-.68-1.19-.12-.45-.12-.89-.02-1.34Zm1.4.33c-.05.2-.03.37.04.51.07.15.2.27.37.37.17.1.39.18.65.24.26.06.49.08.69.07.2-.01.37-.07.5-.17.13-.1.22-.25.26-.44.05-.2.03-.37-.04-.51-.07-.15-.2-.27-.37-.37s-.39-.18-.65-.24c-.26-.06-.49-.08-.69-.07-.2.01-.37.07-.5.17-.13.1-.22.25-.26.44Z"/>
    <path d="m158.83,112.58c.17-.52.42-.96.77-1.31.34-.35.74-.59,1.21-.71.47-.12.97-.09,1.52.09.55.18.97.47,1.27.86.3.4.48.85.54,1.36.06.51,0,1.02-.16,1.53-.13.39-.3.73-.53,1.02-.23.29-.47.5-.74.64l-.8-1.11c.18-.14.33-.29.43-.44.1-.14.18-.3.23-.46.08-.24.1-.48.06-.7-.04-.22-.13-.42-.28-.58-.15-.17-.35-.29-.6-.37s-.49-.1-.7-.06c-.22.04-.41.14-.56.29-.16.15-.27.34-.35.57-.08.24-.11.48-.09.71.02.23.06.44.11.64l-1.29.33c-.15-.38-.22-.78-.22-1.19,0-.41.07-.77.17-1.1Z"/>
    <path d="m157.21,117c.23-.54.57-.85,1.02-.94.45-.09.98,0,1.57.24l2.96,1.24-.69,1.65-2.75-1.15c-.27-.11-.48-.16-.63-.13-.15.02-.28.14-.37.36-.06.14-.08.28-.08.41,0,.13.07.29.2.49l3.09,1.3-.69,1.65-4.8-2.02.56-1.34.68.15.02-.04c-.15-.3-.24-.6-.26-.9s.03-.63.17-.97Z"/>
    <path d="m154.36,123.18c.21-.39.48-.76.83-1.09.35-.33.7-.6,1.04-.79l.63,1.17c-.32.2-.61.43-.86.7-.25.27-.45.55-.6.84-.11.2-.16.36-.15.48,0,.12.05.2.13.24.05.03.11.04.17.02.05-.01.12-.05.18-.12.07-.06.15-.15.24-.27.09-.12.21-.26.36-.43.47-.56.9-.91,1.28-1.04.38-.14.75-.11,1.1.08.46.24.72.62.78,1.16.06.54-.08,1.14-.43,1.81-.23.44-.5.79-.82,1.06-.32.27-.62.49-.9.65l-.58-1.19c.27-.17.5-.36.71-.58.21-.22.37-.45.5-.69.05-.1.09-.19.11-.27.02-.08.02-.15,0-.21-.02-.06-.06-.11-.11-.13-.1-.05-.2-.02-.31.11s-.3.34-.57.65c-.35.41-.65.71-.93.9-.27.19-.53.29-.76.3-.24,0-.48-.05-.74-.19-.29-.15-.5-.38-.64-.67-.14-.3-.18-.66-.14-1.08.05-.42.21-.89.47-1.41Z"/>
    <path d="m151.15,128.76c.29-.46.65-.83,1.06-1.08.42-.26.87-.39,1.35-.39.48,0,.96.15,1.45.46.48.3.83.67,1.03,1.11s.29.89.25,1.36c-.04.47-.18.9-.43,1.29-.29.46-.63.79-1.02.98-.39.19-.79.26-1.21.21-.42-.05-.83-.2-1.22-.44-.13-.08-.25-.17-.36-.26-.11-.09-.19-.16-.23-.2l2.02-3.2.99.62-1.36,2.15-.13-.38c.29.19.55.27.78.25.23-.02.42-.16.57-.4.12-.19.18-.38.18-.57s-.06-.37-.19-.54c-.13-.18-.33-.35-.59-.52-.28-.17-.53-.27-.76-.29s-.44.04-.63.17c-.19.13-.37.33-.54.6-.11.18-.2.36-.26.56s-.11.42-.14.67l-1.21-.07c0-.37.06-.74.17-1.11.11-.37.25-.7.43-.97Z"/>
    <path d="m148.19,133.05c.4-.53.91-.8,1.54-.82.63-.02,1.28.22,1.95.72.45.34.78.72.98,1.13.2.41.28.82.26,1.22-.03.4-.15.74-.36,1.03-.17.22-.34.38-.53.48-.19.1-.39.16-.62.18l-.02.03.65.38,1.35,1.01-1.08,1.43-5.79-4.36.88-1.17.46.19.03-.03c-.03-.25-.02-.5.03-.76.05-.26.15-.49.29-.67Zm.88,1.25c-.09.12-.15.24-.17.36s-.01.27.05.43l1.53,1.15c.14-.02.26-.07.35-.14.1-.07.18-.16.26-.26.09-.12.14-.25.15-.4.01-.15-.03-.31-.13-.48-.1-.17-.27-.35-.52-.53-.37-.28-.68-.42-.92-.43-.24,0-.44.09-.6.3Z"/>
    <path d="m144.56,135.25l4.49,8.59-.98,1.11-4.49-8.59.98-1.1Z"/>
    <path d="m141.7,141.24l1.11,1.16-.81,2.96.03.03,2.99-.67,1.11,1.16-4.75.93-.83-.88,1.16-4.7Z"/>
    <path d="m128.96,151.52l4.84-.14.68,1-1.92,4.45-.9-1.33,1.28-2.78-.02-.04-3.06.17-.9-1.33Z"/>
    <path d="m125.14,153.33c.48-.27.96-.42,1.45-.45.49-.03.95.07,1.37.3.42.23.78.59,1.06,1.1.28.5.41.98.38,1.47s-.17.92-.42,1.31c-.25.39-.58.71-.99.93-.48.27-.93.4-1.36.38s-.82-.15-1.17-.39c-.35-.24-.64-.56-.86-.97-.07-.13-.14-.27-.19-.4-.05-.13-.09-.23-.11-.29l3.29-1.86.57,1.02-2.21,1.25.06-.39c.17.3.36.5.57.59.21.09.44.06.7-.08.2-.11.34-.25.43-.41.09-.16.12-.35.09-.57-.03-.22-.12-.46-.27-.74-.16-.29-.34-.49-.53-.61-.19-.12-.4-.17-.63-.15-.23.02-.48.11-.76.27-.18.1-.35.23-.49.37-.15.14-.29.32-.44.52l-1.03-.64c.18-.32.4-.62.68-.9.28-.28.55-.49.84-.65Z"/>
    <path d="m122.32,155.01l2.17,4.73-1.33.61-.37-.52-.04.02c-.11.27-.26.53-.45.79-.2.25-.47.46-.82.62-.52.24-.99.24-1.39,0-.4-.24-.73-.65-1-1.24l-1.34-2.92,1.63-.75,1.24,2.71c.12.26.25.44.38.52.13.08.3.08.51-.02.15-.07.27-.16.35-.28.08-.12.16-.26.24-.43l-1.42-3.11,1.63-.75Z"/>
    <path d="m113.61,158.5c.54-.19,1-.26,1.38-.19.38.07.71.24.97.52s.47.64.63,1.07l.54,1.51,1.17-.42.45,1.25-1.23.51.31,1.55-1.39.5-.53-1.47-1.94.7-.47-1.31,1.94-.7-.53-1.48c-.08-.23-.18-.4-.3-.5-.12-.11-.26-.17-.42-.17-.16,0-.34.03-.55.11-.17.06-.32.13-.46.21-.14.08-.26.17-.38.26l-.73-1.11c.19-.14.42-.28.66-.43s.54-.29.87-.41Z"/>
    <path d="m111.12,159.48l1.89,7-1.73.47-.44-1.63-.14-.91h-.04c-.12.22-.29.42-.52.64-.23.21-.52.37-.89.47-.56.15-1.01.07-1.36-.23-.35-.3-.61-.77-.78-1.39l-.83-3.1,1.73-.47.78,2.88c.08.28.17.47.29.58.12.11.29.13.51.07.16-.04.29-.12.39-.21.1-.1.21-.23.31-.38l-.89-3.3,1.73-.47Z"/>
    <path d="m103.71,161.17c.57-.1,1.02,0,1.34.34.32.33.54.82.66,1.45l.58,3.15-1.76.32-.54-2.93c-.05-.29-.13-.49-.23-.61-.1-.11-.27-.15-.5-.11-.15.03-.28.08-.38.16-.11.08-.21.22-.3.43l.6,3.3-1.76.32-.94-5.12,1.43-.26.25.65h.04c.17-.29.37-.53.61-.72.24-.19.54-.32.9-.39Z"/>
    <path d="m96.97,162.16c.44-.04.9,0,1.37.11.47.12.88.26,1.23.45l-.65,1.17c-.34-.17-.69-.28-1.05-.35-.36-.07-.7-.08-1.03-.05-.23.02-.39.07-.49.13-.09.07-.14.15-.13.24,0,.06.03.11.07.15.04.04.11.07.2.09s.21.04.36.06.33.04.56.07c.73.1,1.25.27,1.57.51.32.25.5.57.53.97.05.51-.14.94-.56,1.28-.42.34-1.01.55-1.76.62-.49.04-.93,0-1.33-.12-.4-.12-.74-.26-1.04-.4l.7-1.13c.28.14.57.23.87.28.3.05.58.07.85.04.11,0,.21-.03.28-.06.08-.03.14-.07.18-.11.04-.05.06-.11.05-.17,0-.11-.1-.18-.26-.21-.16-.03-.45-.07-.86-.13-.53-.07-.95-.17-1.25-.29-.31-.13-.53-.29-.67-.48-.14-.19-.22-.44-.24-.73-.03-.33.05-.63.22-.9s.46-.51.84-.7c.38-.19.86-.31,1.44-.36Z"/>
    <path d="m90.49,168.57c.33,0,.61.08.83.27.22.19.33.44.34.75,0,.31-.1.57-.31.77-.21.2-.48.31-.82.31-.33,0-.61-.09-.83-.28s-.33-.45-.34-.76c0-.31.1-.57.31-.76s.48-.29.82-.3Zm.73-5.93l.07,3.81,1.98-.03.02,1.39-3.77.07-.09-5.21,1.79-.03Z"/>
    <path d="m85.69,162.44c.36.02.66.12.9.28.24.17.42.37.53.62.12.25.16.52.15.8-.04.58-.32,1.01-.84,1.29-.52.28-1.38.41-2.57.39.01.13.06.23.14.32.08.08.19.15.33.2s.31.08.5.09c.15,0,.3,0,.45-.02s.32-.06.49-.11c.17-.05.37-.12.58-.21l.55,1.2c-.27.13-.55.24-.83.32-.28.09-.55.15-.84.18-.28.03-.57.04-.86.02-.49-.03-.91-.14-1.27-.34-.35-.19-.62-.47-.8-.85-.18-.37-.25-.84-.21-1.41l.19-2.89,1.45.09.09.55h.04c.27-.17.56-.31.86-.42.31-.11.62-.15.95-.13Zm-.67,1.33c-.21-.01-.4.01-.57.08s-.33.15-.47.25l-.04.67c.42.01.75,0,.98-.05.23-.05.4-.12.49-.21.09-.09.14-.2.15-.32,0-.08-.01-.14-.05-.21-.04-.06-.1-.11-.18-.14s-.18-.05-.31-.06Z"/>
    <path d="m78.95,161.75c.44.07.87.21,1.3.43.43.22.79.46,1.09.73l-.91.98c-.29-.24-.61-.43-.94-.58-.33-.15-.66-.25-.99-.3-.23-.03-.39-.03-.5.02-.11.04-.17.11-.18.2,0,.06,0,.12.03.16.03.05.09.09.17.13s.19.09.33.14.32.12.53.2c.68.26,1.15.55,1.4.87.25.31.35.67.29,1.07-.08.51-.36.88-.85,1.12-.49.24-1.11.3-1.85.19-.49-.07-.91-.21-1.27-.43-.36-.21-.66-.42-.91-.64l.94-.93c.24.2.5.36.78.48s.55.2.82.24c.11.02.21.02.29.01.08,0,.15-.03.2-.07.05-.04.08-.09.09-.15.02-.11-.05-.2-.2-.26s-.42-.18-.8-.33c-.5-.19-.88-.39-1.15-.58-.27-.19-.45-.4-.53-.62-.09-.22-.11-.47-.07-.76.05-.32.19-.6.43-.83.24-.23.56-.39.98-.48.41-.09.91-.1,1.49,0Z"/>
    <path d="m72.06,160.4c.55.13.97.33,1.26.6.29.27.46.59.53.96.07.38.05.79-.06,1.24l-.37,1.56,1.22.29-.31,1.3-1.31-.25-.58,1.47-1.44-.34.36-1.52-2.01-.47.32-1.36,2.01.47.36-1.53c.06-.24.06-.43.02-.59s-.13-.28-.26-.37-.31-.16-.52-.21c-.18-.04-.34-.06-.5-.07-.16,0-.31,0-.46.01v-1.33c.23,0,.49,0,.78,0s.61.05.95.13Z"/>
    <path d="m64.83,164.58c.32.1.55.28.69.53.15.25.17.52.07.82-.1.3-.28.51-.54.63-.27.12-.56.13-.87.03-.32-.1-.55-.28-.69-.54-.14-.25-.17-.53-.07-.83.1-.3.28-.5.54-.62.26-.11.55-.12.87-.02Zm2.62-5.37l-1.18,3.62,1.88.61-.43,1.33-3.58-1.17,1.61-4.95,1.7.55Z"/>
    <path d="m61.07,156.7c.51.21.92.5,1.24.87.32.37.52.79.6,1.27.08.47,0,.98-.22,1.51-.22.53-.55.93-.96,1.19-.42.26-.89.41-1.4.42-.51.02-1.01-.08-1.51-.28-.38-.16-.7-.36-.97-.61s-.46-.51-.58-.79l1.18-.7c.13.2.26.35.4.47.14.11.28.2.44.27.24.1.47.14.69.12.23-.02.43-.09.61-.23.18-.14.32-.33.42-.57.1-.24.14-.47.12-.7-.02-.22-.1-.42-.24-.58-.14-.17-.31-.3-.54-.4-.24-.1-.47-.15-.7-.15-.23,0-.45.02-.65.05l-.22-1.31c.4-.12.8-.16,1.2-.12.4.04.77.13,1.09.26Z"/>
    <path d="m58.92,154.08l-7.24,6.44-1.31-.68,7.24-6.44,1.31.68Z"/>
    <path d="m52.42,152.77l-.86,1.36-3.06-.06-.02.04,1.37,2.74-.86,1.36-2.06-4.38.65-1.02,4.84-.02Z"/>
    <path d="m39.35,142.92l1.32,4.66-.8.9-4.78-.77,1.07-1.2,3.01.56.03-.03-.91-2.93,1.07-1.2Z"/>
    <path d="m37.46,140.5c.25.26.41.53.47.82.06.28.05.56-.03.82-.08.26-.23.49-.44.69-.42.4-.92.53-1.49.38-.57-.15-1.29-.63-2.15-1.45-.08.1-.11.21-.11.33s.03.24.1.37c.07.13.17.27.31.41.1.1.21.2.34.29.13.09.27.17.44.25.17.08.35.16.57.24l-.41,1.26c-.29-.09-.56-.2-.82-.32-.26-.12-.51-.27-.74-.43-.23-.17-.44-.35-.65-.56-.34-.36-.57-.73-.7-1.11-.13-.38-.13-.77-.01-1.16.12-.39.39-.79.8-1.18l2.1-2,1,1.06-.31.46.03.03c.31.06.62.15.92.28.3.13.56.31.79.55Zm-1.4.52c-.14-.15-.3-.26-.47-.32-.17-.07-.34-.11-.52-.14l-.48.46c.3.3.55.51.76.63.2.12.37.18.5.17.13,0,.24-.05.33-.13.06-.05.09-.11.1-.19.01-.07,0-.14-.03-.22-.04-.08-.1-.17-.19-.26Z"/>
    <path d="m34.58,137.64l-4.05,3.27-.84-1.04.41-.49-.03-.03c-.21.06-.43.07-.65.03-.23-.04-.43-.18-.62-.41-.13-.17-.2-.36-.18-.57.01-.21.11-.42.28-.64-.22.08-.45.1-.7.06s-.46-.18-.65-.41c-.24-.29-.3-.61-.18-.96.11-.35.37-.69.78-1.02l2.82-2.27,1.06,1.31-2.72,2.2c-.16.13-.21.24-.13.33.04.05.11.08.19.09.08,0,.19-.02.33-.07l2.66-2.14.85,1.05-2.72,2.2c-.09.07-.14.13-.15.19-.02.06,0,.11.04.17.04.05.1.07.18.07.08,0,.19-.03.33-.08l2.66-2.14,1.06,1.31Z"/>
    <path d="m29.05,130.11c.13.2.22.42.25.67.03.26.01.53-.06.82l.02.03.55-.19.78,1.15-6,4.07-1-1.48,1.4-.95.66-.37-.02-.04c-.24-.05-.46-.15-.66-.29-.2-.14-.37-.3-.5-.5-.24-.35-.35-.71-.34-1.09,0-.38.13-.75.36-1.11.23-.36.56-.69,1.01-.99.49-.34.98-.53,1.44-.6.47-.06.89-.02,1.26.14.37.16.66.39.88.71Zm-.97,1.17c-.08-.12-.19-.21-.33-.26-.14-.05-.31-.06-.51-.01-.2.05-.44.16-.72.35-.24.16-.41.31-.52.46-.11.15-.17.29-.18.43,0,.14.04.28.14.42.08.12.17.21.28.27.11.07.26.11.45.14l1.59-1.07c.01-.14,0-.28-.04-.4-.04-.12-.09-.23-.15-.33Z"/>
    <path d="m20.66,127.95c.16.29.21.58.15.86-.06.28-.23.5-.5.65-.27.15-.55.18-.83.09-.28-.09-.5-.28-.66-.57-.16-.29-.21-.58-.14-.86.07-.28.24-.5.51-.66.27-.15.54-.18.82-.09.27.09.49.29.65.58Zm5.56-2.17l-3.32,1.87.97,1.72-1.22.68-1.85-3.28,4.54-2.55.88,1.56Z"/>
    <path d="m23.04,119.19c.24.52.34.97.3,1.36-.04.39-.18.73-.44,1.01-.26.28-.59.52-1.02.72l-1.46.67.52,1.13-1.21.55-.61-1.19-1.52.44-.62-1.34,1.42-.65-.86-1.87,1.27-.58.86,1.88,1.43-.66c.22-.1.38-.22.48-.34.1-.13.14-.27.13-.43s-.06-.34-.15-.54c-.07-.16-.16-.31-.25-.44-.09-.13-.19-.25-.29-.35l1.04-.82c.15.18.31.39.49.62s.33.51.48.83Z"/>
    <path d="m15.29,116.04c.11.31.12.6,0,.87-.11.27-.31.45-.6.56-.29.11-.57.09-.83-.04-.26-.13-.44-.36-.56-.67-.11-.31-.11-.61,0-.88.11-.27.32-.46.61-.56.29-.1.57-.09.82.05.25.14.44.36.55.68Zm5.85-1.22l-3.59,1.29.67,1.86-1.31.47-1.28-3.55,4.9-1.76.61,1.68Z"/>
    <path d="m19.33,108.69c.12.44.13.89.03,1.34-.1.45-.31.85-.64,1.21-.33.35-.77.6-1.32.75-.56.15-1.06.15-1.52.01-.46-.14-.85-.39-1.16-.72-.31-.34-.53-.73-.65-1.17s-.13-.89-.03-1.34c.1-.45.32-.85.64-1.21s.77-.61,1.32-.75c.56-.15,1.06-.15,1.52-.01.46.14.85.38,1.16.72.31.34.53.73.65,1.17Zm-1.39.37c-.05-.19-.15-.34-.28-.43-.13-.09-.3-.14-.5-.15-.2,0-.43.02-.69.09-.25.07-.47.16-.64.26-.17.11-.29.24-.36.38-.07.15-.08.32-.02.51.05.2.15.34.28.43.13.09.3.14.5.15.2,0,.43-.02.69-.09.25-.07.47-.16.64-.26s.29-.24.36-.38c.07-.15.08-.32.02-.51Z"/>
    <path d="m18.17,103.68c.1.57-.01,1.02-.34,1.34-.33.32-.82.54-1.45.65l-3.16.57-.32-1.76,2.93-.53c.29-.05.49-.13.6-.23.12-.1.15-.27.11-.5-.03-.15-.08-.28-.16-.38-.08-.11-.22-.21-.43-.3l-3.3.6-.32-1.76,5.12-.93.26,1.43-.65.25v.04c.29.17.53.37.72.61.19.24.32.54.39.9Z"/>
    <path d="m17.18,96.97c.04.44,0,.9-.11,1.37-.11.47-.26.88-.45,1.23l-1.17-.65c.16-.34.28-.69.35-1.05.07-.36.08-.7.05-1.04-.02-.23-.06-.39-.13-.48-.07-.09-.15-.14-.24-.13-.06,0-.11.03-.15.07-.04.04-.07.11-.09.2-.02.09-.04.21-.06.35-.02.15-.04.33-.07.56-.1.73-.27,1.25-.51,1.57-.25.32-.57.5-.97.53-.51.04-.94-.14-1.28-.56-.34-.42-.55-1.01-.62-1.76-.04-.49,0-.94.12-1.33.12-.4.26-.74.41-1.03l1.13.69c-.13.28-.23.57-.28.87-.05.3-.07.58-.04.85,0,.11.03.21.06.28.03.08.07.14.11.18.05.04.1.06.17.05.11,0,.18-.1.21-.26.03-.16.07-.45.13-.86.07-.53.17-.95.3-1.25.13-.31.29-.53.48-.67.19-.13.44-.22.73-.24.33-.03.63.04.9.22.28.18.51.46.7.84.19.38.31.86.36,1.44Z"/>
    <path d="m18.41,93.27l-9.12-3.28-.02-1.48,9.12,3.28.02,1.48Z"/>
    <path d="m16.46,86.93l-1.6-.1-1.41-2.72h-.04s-1.75,2.51-1.75,2.51l-1.6-.11,2.87-3.9,1.21.08,2.33,4.24Z"/>
  </g>
</svg>