<?xml version="1.0" encoding="UTF-8"?>
<svg id="Layer_1" data-name="Layer 1" xmlns="http://www.w3.org/2000/svg" viewBox="0 0 521.91 521.84" class="light">
      .light {
        fill: #ffffff;
      }
  <path d="m255.4,299.38v-67.98c2.68,2.19,5.08,3.83,7.16,5.92,14.22,14.26,28.5,28.44,42.42,43.11,2.23,2.35,3.9,6.99,3.93,10.6.3,29.45.04,58.91.25,88.36.05,6.42-1.33,9.07-7.09,9.52-11.49.89-22.89,3.42-34.37,4.21-3.44.24-7.93-1.94-10.45-4.88-56.32-65.62-112.44-131.5-168.6-197.31-1.33-1.56-2.81-2.92-5.29-5.47-15.33,38.07-18.74,77.07-10.68,116.96,8.07,39.93,28.91,71.64,51.2,104.49-17.12,1.46-32.66,2.77-48.21,4.13-7.22.63-14.48,2.28-21.62,1.71-4.25-.34-10.14-2.69-12.17-6.53C19.87,364.66-.32,322.47,0,270.36c.21-33.01.75-65.71,13.41-95.56,8.85-20.87,19.84-40.45,30.42-60.18,1.63-3.05,6.27-5.53,9.39-5.33,14.7.97,29.38,2.75,44.02,4.79,3.21.45,6.96,2.27,9.18,4.98,35.06,42.8,69.89,85.87,104.83,128.82,13.14,16.15,26.4,32.17,39.65,48.18.87,1.06,2.16,1.62,4.49,3.31Z"/>
  <path d="m453.02,375.44c32.55-56.97,44.33-116.25,21.52-182.39-14.75,21.02-29.01,41.13-43.08,61.44-11.69,16.89-23.06,34.11-34.75,51-8.05,11.63-12.06,11.56-20.39-.04-20.9-29.1-41.72-58.28-62.6-87.4-.81-1.13-1.92-1.94-4.45-4.44v57.67c-5.86-5.06-10.07-8.24-13.86-12.05-11.53-11.59-23.04-23.24-34.22-35.32-2.31-2.5-4.41-6.95-4.47-10.55-.45-26.21-.33-52.44-.44-78.66-.02-4.98,1.52-6.7,5.9-6.17,16.27,1.96,32.61,3.08,48.84,5.38,3.39.48,7.2,3.89,9.49,7.26,21.13,30.98,41.96,62.26,62.92,93.41,1.3,1.94,2.99,3.5,4.89,5.7,7.54-10.86,14.73-21.14,21.86-31.5,11.31-16.44,23.28-32.3,33.57-49.62,5.87-9.88,12.23-13.01,21.56-11.56,9.03,1.41,18.23,1.45,27.19,3.26,3.01.61,6.68,4.1,8.09,7.47,17.8,42.41,25.8,87.52,18.86,134.45-3.62,24.52-12.06,48.08-19.23,71.67-1.12,3.68-6.92,6.78-10.86,7.43-11.34,1.87-22.84,2.35-36.32,3.56Z"/>
  <path d="m480.8,122.49c-6.49-.47-11.5-.62-16.47-1.23-7.99-.98-15.94-2.44-23.93-3.38-7.58-.89-14.03-3.58-20.37-9.55-38.6-36.32-82.62-54.67-131.57-56.73-37.26-1.57-73.51,3.79-107.26,23.5-13.68,7.99-26.68,10.93-41.63,8.14-17.72-3.31-35.73-4.34-53.6-6.49-2.28-.27-4.5-1.34-7.08-2.14C185.44-38.35,389.33-23.56,480.8,122.49Z"/>
  <path d="m480.17,400.31c-91.42,148.33-296.84,157.6-403.17,45.68,8.14-.73,14.85-1.2,21.54-1.97,17.61-2.04,35.19-4.62,52.83-6.08,5.32-.44,11.31.77,16.14,3.46,64.44,35.93,129.99,40.49,196.79,10.78,21.81-9.7,41.28-24.47,59.61-41.62,3.2-2.99,7.43-5.49,11.39-6.01,14.61-1.89,29.3-2.85,44.87-4.24Z"/>
</svg>